<svg width="220" height="20" viewBox="0 0 220 20" fill="none" xmlns="http://www.w3.org/2000/svg">
<g clip-path="url(#clip0_83_163)">
<path d="M0 19.1716V0.43396H3.28419V8.40241H11.2717V0.43396H14.5964V19.1716H11.2717V11.2032H3.28419V19.1716H0Z" fill="#503694"/>
<path d="M23.3948 11.8738H28.6657L26.0708 4.73376L23.3948 11.8738ZM17.5967 19.1716V18.1066L24.4895 0.43396H27.7331L34.6259 18.1066V19.1716H31.3822L29.6793 14.5563H22.3811L20.6782 19.1716H17.5967Z" fill="#503694"/>
<path d="M40.951 9.23081H45.3299C47.3572 9.23081 48.3708 8.24461 48.3708 6.23278C48.3708 4.22094 47.3572 3.23475 45.3299 3.23475H40.951V9.23081ZM37.6263 19.1716V0.43396H45.8975C49.6277 0.43396 51.6955 2.56414 51.6955 6.19333C51.6955 8.67854 50.5197 10.6509 48.2897 11.5977L51.8983 18.1066V19.1716H48.6546L44.6812 11.9527H40.951V19.1716H37.6263Z" fill="#503694"/>
<path d="M59.1154 16.3709H64.143C65.9676 16.3709 66.9001 15.503 66.9001 13.8067C66.9001 12.0316 66.0081 11.1637 64.143 11.1637H59.1154V16.3709ZM59.1154 8.4813H63.3727C65.1972 8.4813 66.0892 7.61345 66.0892 5.8383C66.0892 4.1026 65.1972 3.23475 63.3727 3.23475H59.1154V8.4813ZM55.7906 19.1716V0.43396H63.8998C67.3461 0.43396 69.4139 2.13021 69.4139 5.48327C69.4139 7.37676 68.6436 8.67854 67.1028 9.4675C69.1301 10.1776 70.1438 11.6766 70.1438 14.004C70.1438 17.3965 68.1165 19.2111 64.6296 19.2111H55.7906V19.1716Z" fill="#503694"/>
<path d="M85.3077 6.6272C85.3077 4.49702 83.8076 2.99801 81.0505 2.99801C78.2934 2.99801 76.7932 4.53647 76.7932 6.6272V13.0177C76.7932 15.1479 78.2934 16.6469 81.0505 16.6469C83.8076 16.6469 85.3077 15.1085 85.3077 13.0177V6.6272ZM73.4684 6.78499C73.4684 2.60353 76.3877 0.0394287 81.0505 0.0394287C85.7132 0.0394287 88.6325 2.56408 88.6325 6.78499V12.8205C88.6325 17.0414 85.7132 19.5661 81.0505 19.5661C76.3877 19.5661 73.4684 17.0414 73.4684 12.8205V6.78499Z" fill="#503694"/>
<path d="M103.999 0.43396H107.283V13.0572C107.283 15.1085 106.635 16.6864 105.297 17.8304C103.999 18.9744 102.215 19.5267 99.9852 19.5267C97.7552 19.5267 95.9712 18.9744 94.6332 17.8304C93.3358 16.6864 92.687 15.0691 92.687 13.0572V0.43396H95.9712V13.215C95.9712 15.1874 97.3903 16.6075 99.9447 16.6075C102.499 16.6075 103.918 15.148 103.918 13.215V0.43396H103.999Z" fill="#503694"/>
<path d="M115.271 9.23081H119.65C121.677 9.23081 122.691 8.24461 122.691 6.23278C122.691 4.22094 121.677 3.23475 119.65 3.23475H115.271V9.23081ZM111.987 19.1716V0.43396H120.258C123.988 0.43396 126.056 2.56414 126.056 6.19333C126.056 8.67854 124.88 10.6509 122.691 11.5977L126.299 18.1066V19.1716H123.056L119.082 11.9527H115.271V19.1716H111.987Z" fill="#503694"/>
<path d="M138.463 17.9093C137.044 16.7653 136.355 15.1874 136.355 13.0967H139.639C139.639 13.9645 139.882 14.6746 140.369 15.2268C141.342 16.3314 142.599 16.6075 144.018 16.6075C146.329 16.6075 147.626 15.5819 147.626 14.1617C147.626 13.4911 147.342 12.9783 146.734 12.6233C146.126 12.2683 145.031 11.7554 143.45 11.1637L143.207 11.0848L142.761 10.927C140.652 10.1381 139.152 9.38856 138.26 8.67851C137.368 7.929 136.922 6.86391 136.922 5.44379C136.922 3.82643 137.53 2.48521 138.747 1.49901C140.004 0.512821 141.707 0 143.855 0C148.194 0 150.991 2.01184 150.991 6.31164H147.707C147.707 3.94478 146.045 2.91913 143.815 2.91913C141.625 2.91913 140.247 3.86588 140.247 5.2071C140.247 5.91716 140.531 6.50888 141.098 6.82446C141.666 7.17949 142.761 7.61342 144.383 8.20513L144.788 8.32348C145.842 8.67851 146.653 8.99409 147.261 9.27022C147.91 9.54636 148.518 9.90139 149.207 10.3353C150.545 11.2032 151.154 12.3866 151.154 13.9645C151.154 17.2387 148.559 19.4872 143.855 19.4872C141.707 19.5661 139.923 19.0138 138.463 17.9093Z" fill="#503694"/>
<path d="M158.574 9.15191H163.034C164.534 9.15191 165.669 8.12627 165.669 6.19333C165.669 4.29984 164.534 3.23475 163.034 3.23475H158.574V9.15191ZM155.249 19.1716V0.43396H163.601C167.007 0.43396 169.034 2.64303 169.034 6.19333C169.034 9.74363 167.007 11.9527 163.601 11.9527H158.574V19.1716H155.249Z" fill="#503694"/>
<path d="M175.197 11.8738H180.468L177.873 4.73376L175.197 11.8738ZM169.44 19.1716V18.1066L176.332 0.43396H179.576L186.469 18.1066V19.1716H183.225L181.522 14.5563H174.265L172.521 19.1716H169.44Z" fill="#503694"/>
<path d="M188.902 12.8205V6.78499C188.902 2.48519 191.618 0.0394287 196.403 0.0394287C198.43 0.0394287 200.133 0.591697 201.471 1.65679C202.809 2.76132 203.498 4.37868 203.498 6.50886V6.78499H200.214V6.50886C200.214 5.36488 199.808 4.45758 199.038 3.90531C198.227 3.27414 197.376 2.99801 196.403 2.99801C193.605 2.99801 192.267 4.29979 192.267 6.58776V13.0572C192.267 15.3452 193.645 16.6469 196.403 16.6469C197.376 16.6469 198.227 16.3708 199.038 15.7791C199.849 15.1479 200.214 14.2801 200.214 13.1361V12.8599H203.498V13.1361C203.498 15.2663 202.809 16.8836 201.471 17.9882C200.133 19.0927 198.43 19.6055 196.403 19.6055C191.659 19.5661 188.902 17.1203 188.902 12.8205Z" fill="#503694"/>
<path d="M207.634 19.1716V0.43396H219.959V3.23475H210.918V8.44185H218.703V11.1243H210.918V16.3709H220V19.1716H207.634Z" fill="#503694"/>
<path d="M132.787 19.1716C132.787 19.6055 132.422 20 131.935 20C131.489 20 131.084 19.645 131.084 19.1716C131.084 18.7377 131.449 18.3432 131.935 18.3432C132.422 18.3826 132.787 18.7377 132.787 19.1716Z" fill="#503694"/>
</g>
<defs>
<clipPath id="clip0_83_163">
<rect width="220" height="20" fill="white"/>
</clipPath>
</defs>
</svg>
