<svg width="1280" height="1280" viewBox="0 0 1280 1280" fill="none" xmlns="http://www.w3.org/2000/svg" xmlns:xlink="http://www.w3.org/1999/xlink">
<circle cx="640" cy="640" r="640" fill="url(#paint0_radial_1006_1591)"/>
<circle cx="640" cy="640" r="640" fill="url(#pattern0_1006_1591)"/>
<defs>
<radialGradient id="paint0_radial_1006_1591" cx="0" cy="0" r="1" gradientUnits="userSpaceOnUse" gradientTransform="translate(640 640) rotate(90) scale(640)">
<stop stop-color="#FAFAFA"/>
<stop offset="1" stop-color="white"/>
</radialGradient>
<pattern id="pattern0_1006_1591" patternUnits="userSpaceOnUse" viewBox="190 -202 64 64" width="5%" height="5%" patternContentUnits="objectBoundingBox">
<g clip-path="url(#clip0_1006_1591)">
<path d="M254 -202H190V-138H254V-202Z" stroke="white"/>
<path d="M190 -170H215.6" stroke="white"/>
<path d="M228.4 -170H254" stroke="white"/>
<path d="M222 -138V-163.6" stroke="white"/>
<path d="M222 -176.4V-202" stroke="white"/>
<path d="M190 -202L218.8 -173.2" stroke="white"/>
<path d="M225.2 -166.8L254 -138" stroke="white"/>
<path d="M190 -138L218.8 -166.8" stroke="white"/>
<path d="M225.2 -173.2L254 -202" stroke="white"/>
<path d="M222 -176.4L228.4 -170L222 -163.6L215.6 -170L222 -176.4Z" fill="white" stroke="white"/>
</g>
</pattern><clipPath id="clip0_1006_1591">
<rect width="64" height="64" fill="white" transform="translate(190 -202)"/>
</clipPath>
</defs>
</svg>
