<svg width="180" height="180" viewBox="0 0 180 180" fill="none" xmlns="http://www.w3.org/2000/svg">
<path d="M45.7031 128.522C48.7415 126.099 53.124 126.443 56.2275 128.893L56.5234 129.136C62.973 134.658 70.8042 138.614 79.4277 140.413L80.2646 140.58C84.2967 141.352 87.4999 144.644 87.5 148.658V169.797C87.4999 173.886 84.2415 177.185 80.2822 176.956L79.8975 176.923C60.1797 174.661 42.4649 165.858 28.9746 152.732L28.3359 152.104C25.4763 149.264 25.8328 144.649 28.8604 141.969L29.1611 141.716L45.7031 128.522ZM123.475 129.137C126.493 126.553 130.874 126.052 133.996 128.297L134.294 128.522L150.837 141.716C154.036 144.267 154.583 148.874 151.93 151.824L151.663 152.104C138.308 165.366 120.693 174.341 101.04 176.811L100.103 176.923C95.9718 177.397 92.5002 174.018 92.5 169.797V148.658C92.5001 144.769 95.5065 141.558 99.3604 140.66L99.7354 140.58C108.409 138.92 116.309 135.086 122.847 129.666L123.475 129.137ZM3.00684 80.5176C3.43798 76.5078 7.26994 73.905 11.2559 74.6016L11.6416 74.6797L32.2607 79.3848C36.0476 80.249 38.5112 83.8866 38.5352 87.8379L38.5303 88.2217C38.5102 88.812 38.5 89.4048 38.5 90C38.5 98.3659 40.4966 106.266 44.0381 113.251L44.3857 113.925C46.2362 117.445 45.7524 121.831 42.8672 124.378L42.5801 124.619L26.0361 137.813C22.839 140.363 18.2303 139.874 15.9434 136.635L15.7285 136.312C7.34382 122.885 2.5 107.014 2.5 90L2.50781 88.8008C2.5399 86.405 2.66823 84.0327 2.88867 81.6875L3.00684 80.5176ZM168.357 74.6807C172.35 73.7696 176.293 76.219 176.94 80.1357L176.993 80.5195C177.328 83.6332 177.5 86.7963 177.5 90C177.5 106.483 172.953 121.892 165.046 135.047L164.271 136.312C162.137 139.729 157.561 140.405 154.276 138.051L153.963 137.813L137.419 124.619C134.378 122.194 133.741 117.841 135.441 114.268L135.613 113.925C139.372 106.776 141.5 98.6361 141.5 90C141.5 89.7025 141.497 89.4057 141.492 89.1094L141.47 88.2227C141.335 84.2535 143.676 80.519 147.376 79.4785L147.738 79.3867L168.357 74.6807ZM126.889 19.167C128.664 15.4804 133.034 13.9238 136.499 15.8555L136.832 16.0527C152.988 26.2984 165.545 41.6949 172.208 59.9395L172.521 60.8105C173.862 64.6062 171.537 68.6037 167.65 69.7031L167.27 69.7998L146.643 74.5068C142.851 75.372 139.051 73.1566 137.312 69.6016L137.149 69.2539C133.642 61.2943 128.178 54.3917 121.367 49.1543L120.704 48.6523C117.516 46.2816 116.055 42.1226 117.549 38.5801L117.703 38.2393L126.889 19.167ZM43.1738 16.0498C46.5772 13.892 50.9976 15.2664 52.9365 18.8145L53.1162 19.165L62.2998 38.2383C63.9851 41.7384 62.6764 45.9328 59.6016 48.416L59.2979 48.6514C52.4003 53.7806 46.83 60.5945 43.1963 68.4854L42.8506 69.2529C41.2466 72.8923 37.5142 75.2483 33.7246 74.5801L33.3574 74.5059L12.7295 69.7979C8.74447 68.8884 6.25342 64.9819 7.35938 61.1768L7.47852 60.8086C13.9547 42.4727 26.3636 26.9493 42.4072 16.541L43.1738 16.0498ZM90 2.5C99.7158 2.5 109.058 4.07901 117.784 6.99414L118.626 7.28027C122.433 8.59566 124.113 12.9077 122.548 16.6348L122.387 16.9932L113.204 36.0566C111.517 39.5598 107.416 41.1497 103.553 40.293L103.18 40.2021C98.9725 39.0915 94.555 38.5 90 38.5C85.7307 38.5 81.5821 39.0194 77.6143 39.999L76.8223 40.2012C72.9769 41.2159 68.8087 39.7673 66.9688 36.3877L66.7979 36.0547L57.6182 16.9902C55.8435 13.3047 57.3479 8.91974 61.0166 7.41504L61.3789 7.27832C70.0641 4.27859 79.3721 2.60641 89.0615 2.50488L90 2.5Z" fill="url(#paint0_linear_1005_1579)" stroke="#9A83FF"/>
<path d="M90 43.5C115.681 43.5 136.5 64.3188 136.5 90C136.5 115.681 115.681 136.5 90 136.5C64.3188 136.5 43.5 115.681 43.5 90C43.5 64.3188 64.3188 43.5 90 43.5Z" fill="#F4F2FF" stroke="#E1DBFF"/>
<defs>
<linearGradient id="paint0_linear_1005_1579" x1="90" y1="2" x2="90" y2="177.468" gradientUnits="userSpaceOnUse">
<stop stop-color="#E1DBFF"/>
<stop offset="1" stop-color="#C1B4FF"/>
</linearGradient>
</defs>
</svg>
