<svg width="180" height="180" viewBox="0 0 180 180" fill="none" xmlns="http://www.w3.org/2000/svg">
<g clip-path="url(#clip0_511_122)">
<path d="M117.03 19.4401V30.1601C117.03 30.7101 117.48 31.1601 118.03 31.1601H139.3L149.1 42.0801V75.9401C149.1 76.4901 149.55 76.9401 150.1 76.9401H172.52C172.95 78.5701 174.43 79.7701 176.19 79.7701C178.28 79.7701 179.99 78.0701 179.99 75.9701C179.99 73.8701 178.29 72.1701 176.19 72.1701C174.46 72.1701 172.99 73.3401 172.54 74.9301H151.11V41.6801C151.11 41.4301 151.02 41.1901 150.85 41.0101L140.49 29.4701C140.3 29.2601 140.03 29.1401 139.74 29.1401H119.02V19.4401C120.65 19.0101 121.85 17.5301 121.85 15.7701C121.85 13.6801 120.15 11.9701 118.05 11.9701C115.95 11.9701 114.25 13.6701 114.25 15.7701C114.25 17.5101 115.42 18.9701 117.01 19.4201L117.03 19.4401ZM176.2 74.1901C177.19 74.1901 177.99 74.9901 177.99 75.9801C177.99 76.9701 177.19 77.7701 176.2 77.7701C175.21 77.7701 174.41 76.9701 174.41 75.9801C174.41 74.9901 175.21 74.1901 176.2 74.1901ZM118.07 13.9901C119.06 13.9901 119.86 14.7901 119.86 15.7801C119.86 16.7701 119.06 17.5701 118.07 17.5701C117.08 17.5701 116.28 16.7701 116.28 15.7801C116.28 14.7901 117.08 13.9901 118.07 13.9901Z" fill="#8A62FC"/>
<path d="M77.11 49.3401V38.3501L90.74 24.7201C90.93 24.5301 91.03 24.2801 91.03 24.0101V10.8301L95.42 6.44006C95.81 6.05006 95.81 5.41006 95.42 5.02006L90.69 0.290059C90.3 -0.0999414 89.66 -0.0999414 89.27 0.290059L84.54 5.02006C84.15 5.41006 84.15 6.05006 84.54 6.44006L89.01 10.9101V23.5901L75.38 37.2201C75.19 37.4101 75.09 37.6601 75.09 37.9301V49.3401C72.62 49.8101 70.75 51.9801 70.75 54.5901C70.75 57.5401 73.15 59.9401 76.1 59.9401C79.05 59.9401 81.45 57.5401 81.45 54.5901C81.45 51.9801 79.58 49.8101 77.11 49.3401ZM89.99 2.42006L93.3 5.73006L89.99 9.04006L86.68 5.73006L89.99 2.42006ZM76.1 57.9301C74.26 57.9301 72.76 56.4301 72.76 54.5901C72.76 52.7501 74.26 51.2501 76.1 51.2501C77.94 51.2501 79.44 52.7501 79.44 54.5901C79.44 56.4301 77.94 57.9301 76.1 57.9301Z" fill="#8A62FC"/>
<path d="M49.56 59.2V50.51C49.56 49.96 49.11 49.51 48.56 49.51C48.01 49.51 47.56 49.96 47.56 50.51V59.2C47.56 59.75 48.01 60.2 48.56 60.2C49.11 60.2 49.56 59.75 49.56 59.2Z" fill="#8A62FC"/>
<path d="M136.48 54.5901C136.48 51.6401 134.08 49.2401 131.13 49.2401C128.18 49.2401 125.78 51.6401 125.78 54.5901C125.78 57.5401 128.18 59.9401 131.13 59.9401C134.08 59.9401 136.48 57.5401 136.48 54.5901ZM131.13 57.9301C129.29 57.9301 127.79 56.4301 127.79 54.5901C127.79 52.7501 129.29 51.2501 131.13 51.2501C132.97 51.2501 134.47 52.7501 134.47 54.5901C134.47 56.4301 132.97 57.9301 131.13 57.9301Z" fill="#8A62FC"/>
<path d="M103.59 60.2C104.14 60.2 104.59 59.75 104.59 59.2V50.51C104.59 49.96 104.14 49.51 103.59 49.51C103.04 49.51 102.59 49.96 102.59 50.51V59.2C102.59 59.75 103.04 60.2 103.59 60.2Z" fill="#8A62FC"/>
<path d="M103.87 72.4901C100.92 72.4901 98.52 74.8901 98.52 77.8401C98.52 80.7901 100.92 83.1901 103.87 83.1901C106.82 83.1901 109.22 80.7901 109.22 77.8401C109.22 74.8901 106.82 72.4901 103.87 72.4901ZM103.87 81.1801C102.03 81.1801 100.53 79.6801 100.53 77.8401C100.53 76.0001 102.03 74.5001 103.87 74.5001C105.71 74.5001 107.21 76.0001 107.21 77.8401C107.21 79.6801 105.71 81.1801 103.87 81.1801Z" fill="#8A62FC"/>
<path d="M130.42 73.2301V81.9201C130.42 82.4701 130.87 82.9201 131.42 82.9201C131.97 82.9201 132.42 82.4701 132.42 81.9201V73.2301C132.42 72.6801 131.97 72.2301 131.42 72.2301C130.87 72.2301 130.42 72.6801 130.42 73.2301Z" fill="#8A62FC"/>
<path d="M77.39 81.9201V73.2301C77.39 72.6801 76.94 72.2301 76.39 72.2301C75.84 72.2301 75.39 72.6801 75.39 73.2301V81.9201C75.39 82.4701 75.84 82.9201 76.39 82.9201C76.94 82.9201 77.39 82.4701 77.39 81.9201Z" fill="#8A62FC"/>
<path d="M76.1 96.1201C73.15 96.1201 70.75 98.5201 70.75 101.47C70.75 104.42 73.15 106.82 76.1 106.82C79.05 106.82 81.45 104.42 81.45 101.47C81.45 98.5201 79.05 96.1201 76.1 96.1201ZM76.1 104.81C74.26 104.81 72.76 103.31 72.76 101.47C72.76 99.6301 74.26 98.1301 76.1 98.1301C77.94 98.1301 79.44 99.6301 79.44 101.47C79.44 103.31 77.94 104.81 76.1 104.81Z" fill="#8A62FC"/>
<path d="M49.56 106.08V97.39C49.56 96.84 49.11 96.39 48.56 96.39C48.01 96.39 47.56 96.84 47.56 97.39V106.08C47.56 106.63 48.01 107.08 48.56 107.08C49.11 107.08 49.56 106.63 49.56 106.08Z" fill="#8A62FC"/>
<path d="M104.59 106.08V97.39C104.59 96.84 104.14 96.39 103.59 96.39C103.04 96.39 102.59 96.84 102.59 97.39V106.08C102.59 106.63 103.04 107.08 103.59 107.08C104.14 107.08 104.59 106.63 104.59 106.08Z" fill="#8A62FC"/>
<path d="M103.87 119.37C100.92 119.37 98.52 121.77 98.52 124.72C98.52 127.33 100.41 129.51 102.89 129.97V140.94L89.26 154.57C89.07 154.76 88.97 155.01 88.97 155.28V168.46L84.58 172.85C84.19 173.24 84.19 173.88 84.58 174.27L89.31 179C89.51 179.2 89.76 179.29 90.02 179.29C90.28 179.29 90.53 179.19 90.73 179L95.46 174.27C95.85 173.88 95.85 173.24 95.46 172.85L90.99 168.38V155.7L104.62 142.07C104.81 141.88 104.91 141.63 104.91 141.36V129.97C107.37 129.49 109.23 127.32 109.23 124.72C109.23 121.77 106.83 119.37 103.88 119.37H103.87ZM90.01 176.87L86.7 173.56L90.01 170.25L93.32 173.56L90.01 176.87ZM103.97 128.05C103.97 128.05 103.92 128.05 103.9 128.05C103.87 128.05 103.84 128.05 103.81 128.05C102 128.01 100.54 126.53 100.54 124.72C100.54 122.91 102.04 121.38 103.88 121.38C105.72 121.38 107.22 122.88 107.22 124.72C107.22 126.56 105.77 128 103.97 128.05Z" fill="#8A62FC"/>
<path d="M130.42 120.11V128.8C130.42 129.35 130.87 129.8 131.42 129.8C131.97 129.8 132.42 129.35 132.42 128.8V120.11C132.42 119.56 131.97 119.11 131.42 119.11C130.87 119.11 130.42 119.56 130.42 120.11Z" fill="#8A62FC"/>
<path d="M43.5 124.72C43.5 127.67 45.9 130.07 48.85 130.07C51.8 130.07 54.2 127.67 54.2 124.72C54.2 121.77 51.8 119.37 48.85 119.37C45.9 119.37 43.5 121.77 43.5 124.72ZM48.84 121.38C50.68 121.38 52.18 122.88 52.18 124.72C52.18 126.56 50.68 128.06 48.84 128.06C47 128.06 45.5 126.56 45.5 124.72C45.5 122.88 47 121.38 48.84 121.38Z" fill="#8A62FC"/>
<path d="M76.39 119.11C75.84 119.11 75.39 119.56 75.39 120.11V128.8C75.39 129.35 75.84 129.8 76.39 129.8C76.94 129.8 77.39 129.35 77.39 128.8V120.11C77.39 119.56 76.94 119.11 76.39 119.11Z" fill="#8A62FC"/>
<path d="M157.51 90.64C157.51 90.64 157.53 90.64 157.54 90.64L161.99 95.09C162.18 95.28 162.43 95.38 162.7 95.38C162.97 95.38 163.22 95.27 163.41 95.09L168.14 90.3601C168.53 89.9701 168.53 89.3301 168.14 88.9401L163.41 84.21C163.03 83.83 162.37 83.83 161.99 84.21L157.57 88.63C157.57 88.63 157.53 88.63 157.52 88.63H142.94C142.68 88.63 142.42 88.74 142.23 88.92L134.1 97.0101C133.25 96.4401 132.23 96.1101 131.14 96.1101C128.19 96.1101 125.79 98.51 125.79 101.46C125.79 104.41 128.19 106.81 131.14 106.81C134.09 106.81 136.49 104.41 136.49 101.46C136.49 100.33 136.13 99.28 135.53 98.42L143.36 90.64H157.52H157.51ZM162.7 86.34L166.01 89.6501L162.7 92.96L159.39 89.6501L162.7 86.34ZM131.13 104.81C129.29 104.81 127.79 103.31 127.79 101.47C127.79 99.6301 129.29 98.13 131.13 98.13C132.97 98.13 134.47 99.6301 134.47 101.47C134.47 103.31 132.97 104.81 131.13 104.81Z" fill="#8A62FC"/>
<path d="M62.97 159.85V149.13C62.97 148.58 62.52 148.13 61.97 148.13H40.7L30.9 137.21V103.35C30.9 102.8 30.45 102.35 29.9 102.35H7.47C7.04 100.72 5.56 99.52 3.8 99.52C1.71 99.52 0 101.22 0 103.32C0 105.42 1.7 107.12 3.8 107.12C5.53 107.12 7 105.95 7.45 104.36H28.88V137.61C28.88 137.86 28.97 138.1 29.14 138.28L39.5 149.82C39.69 150.03 39.96 150.15 40.25 150.15H60.97V159.85C59.34 160.28 58.14 161.76 58.14 163.52C58.14 165.61 59.84 167.32 61.94 167.32C64.04 167.32 65.74 165.62 65.74 163.52C65.74 161.78 64.57 160.32 62.98 159.87L62.97 159.85ZM3.8 105.1C2.81 105.1 2.01 104.3 2.01 103.31C2.01 102.32 2.81 101.52 3.8 101.52C4.79 101.52 5.59 102.32 5.59 103.31C5.59 104.3 4.79 105.1 3.8 105.1ZM61.93 165.3C60.94 165.3 60.14 164.5 60.14 163.51C60.14 162.52 60.94 161.72 61.93 161.72C62.92 161.72 63.72 162.52 63.72 163.51C63.72 164.5 62.92 165.3 61.93 165.3Z" fill="#8A62FC"/>
<path d="M61.93 11.9901C59.84 11.9901 58.13 13.6901 58.13 15.7901C58.13 17.5501 59.33 19.0301 60.96 19.4601V29.1601H40.24C39.96 29.1601 39.68 29.2801 39.49 29.4901L29.13 41.0301C28.96 41.2101 28.87 41.4501 28.87 41.7001V74.9501H7.45C7 73.3601 5.53 72.1901 3.8 72.1901C1.71 72.1901 0 73.8901 0 75.9901C0 78.0901 1.7 79.7901 3.8 79.7901C5.56 79.7901 7.04 78.5801 7.47 76.9601H29.89C30.44 76.9601 30.89 76.5101 30.89 75.9601V42.1001L40.69 31.1801H61.96C62.51 31.1801 62.96 30.7301 62.96 30.1801V19.4601C64.55 19.0101 65.72 17.5401 65.72 15.8101C65.72 13.7201 64.02 12.0101 61.92 12.0101L61.93 11.9901ZM3.8 77.7801C2.81 77.7801 2.01 76.9801 2.01 75.9901C2.01 75.0001 2.81 74.2001 3.8 74.2001C4.79 74.2001 5.59 75.0001 5.59 75.9901C5.59 76.9801 4.79 77.7801 3.8 77.7801ZM61.93 17.5801C60.94 17.5801 60.14 16.7801 60.14 15.7901C60.14 14.8001 60.94 14.0001 61.93 14.0001C62.92 14.0001 63.72 14.8001 63.72 15.7901C63.72 16.7801 62.92 17.5801 61.93 17.5801Z" fill="#8A62FC"/>
<path d="M176.2 99.5101C174.44 99.5101 172.96 100.72 172.53 102.34H150.11C149.56 102.34 149.11 102.79 149.11 103.34V137.2L139.31 148.12H118.04C117.49 148.12 117.04 148.57 117.04 149.12V159.84C115.45 160.29 114.28 161.76 114.28 163.49C114.28 165.58 115.98 167.29 118.08 167.29C120.18 167.29 121.88 165.59 121.88 163.49C121.88 161.73 120.68 160.25 119.05 159.82V150.12H139.77C140.05 150.12 140.33 150 140.52 149.79L150.88 138.25C151.05 138.07 151.14 137.83 151.14 137.58V104.33H172.57C173.02 105.92 174.49 107.09 176.22 107.09C178.31 107.09 180.02 105.39 180.02 103.29C180.02 101.19 178.32 99.4901 176.22 99.4901L176.2 99.5101ZM119.86 163.51C119.86 164.5 119.06 165.3 118.07 165.3C117.08 165.3 116.28 164.5 116.28 163.51C116.28 162.52 117.08 161.72 118.07 161.72C119.06 161.72 119.86 162.52 119.86 163.51ZM176.2 105.1C175.21 105.1 174.41 104.3 174.41 103.31C174.41 102.32 175.21 101.52 176.2 101.52C177.19 101.52 177.99 102.32 177.99 103.31C177.99 104.3 177.19 105.1 176.2 105.1Z" fill="#8A62FC"/>
<path d="M22.49 88.65C22.49 88.65 22.47 88.65 22.46 88.65L18.01 84.2C17.63 83.82 16.97 83.82 16.59 84.2L11.86 88.93C11.47 89.32 11.47 89.96 11.86 90.35L16.59 95.08C16.78 95.27 17.03 95.37 17.3 95.37C17.57 95.37 17.82 95.26 18.01 95.08L22.43 90.66C22.43 90.66 22.46 90.66 22.48 90.66H37.06C37.32 90.66 37.58 90.55 37.77 90.37L45.89 82.3C46.74 82.86 47.75 83.2 48.85 83.2C51.8 83.2 54.2 80.8 54.2 77.85C54.2 74.9 51.8 72.5 48.85 72.5C45.9 72.5 43.5 74.9 43.5 77.85C43.5 78.98 43.86 80.03 44.46 80.9L36.65 88.66H22.49V88.65ZM17.3 92.95L13.99 89.64L17.3 86.33L20.61 89.64L17.3 92.95ZM48.84 74.5C50.68 74.5 52.18 76 52.18 77.84C52.18 79.68 50.68 81.18 48.84 81.18C47 81.18 45.5 79.68 45.5 77.84C45.5 76 47 74.5 48.84 74.5Z" fill="#8A62FC"/>
</g>
<defs>
<clipPath id="clip0_511_122">
<rect width="180" height="179.29" fill="white"/>
</clipPath>
</defs>
</svg>
