<svg width="355" height="355" viewBox="0 0 355 355" fill="none" xmlns="http://www.w3.org/2000/svg">
<path d="M104.085 71.8236C96.1257 71.8236 89.6526 65.3588 89.6526 57.4137C89.6526 49.4648 96.1257 43 104.085 43C112.04 43 118.513 49.4648 118.513 57.4137C118.513 65.3588 112.04 71.8236 104.085 71.8236ZM104.085 46.7736C98.2104 46.7736 93.4292 51.5468 93.4292 57.4156C93.4292 63.2806 98.2085 68.0538 104.085 68.0538C109.956 68.0538 114.737 63.2825 114.737 57.4156C114.737 51.5468 109.956 46.7736 104.085 46.7736V46.7736ZM177.766 92.4644C169.811 92.4644 163.338 85.9997 163.338 78.0507C163.338 70.1056 169.811 63.6389 177.766 63.6389C185.725 63.6389 192.199 70.1056 192.199 78.0507C192.197 86.0015 185.724 92.4644 177.766 92.4644ZM177.766 67.4126C171.892 67.4126 167.114 72.1838 167.114 78.0526C167.114 83.9214 171.89 88.6946 177.766 88.6946C183.643 88.6946 188.422 83.9214 188.422 78.0526C188.422 72.1838 183.641 67.4126 177.766 67.4126V67.4126ZM126.867 269.87C122.46 269.87 118.872 266.409 118.872 262.006C118.872 257.599 122.46 254.015 126.867 254.015C131.278 254.015 134.866 257.599 134.866 262.006C134.866 266.409 131.276 269.87 126.867 269.87ZM126.867 257.785C124.541 257.785 122.649 259.677 122.649 262.004C122.649 264.327 124.541 266.219 126.867 266.219C129.197 266.219 131.089 264.327 131.089 262.004C131.089 259.677 129.197 257.785 126.867 257.785ZM355 180.887H322.799V177.115H355V180.887ZM317.234 167.23L314.564 164.563L332.078 147.072L334.748 149.738L317.234 167.23ZM331.829 210.661L314.311 193.168L316.981 190.501L334.499 207.995L331.829 210.661ZM302.475 204.379L276.156 177.289L302.475 151.811L328.413 178.119L302.475 204.379ZM281.496 178.098L302.473 199.046L323.071 178.119L302.475 157.144L281.496 178.098V178.098ZM252.879 280.838H0V107.338H252.879V280.838ZM3.7766 277.066L249.255 277.483V111.11H3.7766V277.066ZM239.814 248.778L236.037 247.456V124.311H16.7228L16.9947 247.456H13.49L13.2181 120.539H239.814V248.778ZM251.144 248.778H1.8883L1.75612 245.025H249.072L251.144 248.778V248.778ZM143.511 312.898H109.625V277.066H143.511V312.898ZM113.12 309.126H139.891V280.838H113.12V309.126ZM171.835 312.898H81.6179V309.126H171.835V312.898ZM202.645 248.199L152.739 177.115H281.356V180.887H159.878L205.766 246.074L202.645 248.199ZM164.433 246.926L102.197 156.614L101.968 69.6209L105.745 71.5068V154.485L167.535 244.775L164.433 246.926V246.926ZM179.388 177.115L176.042 176.785V90.2617L179.388 90.5918V177.115ZM105.745 196.619H101.968V156.371H105.745V196.619ZM139.912 248.254L102.48 196.994L105.254 194.761L142.954 246.021L139.912 248.254Z" fill="#8A62FC"/>
</svg>
