<svg width="355" height="355" viewBox="0 0 355 355" fill="none" xmlns="http://www.w3.org/2000/svg">
<mask id="path-1-outside-1_520_200" maskUnits="userSpaceOnUse" x="69.9401" y="82.7814" width="198" height="190" fill="black">
<rect fill="white" x="69.9401" y="82.7814" width="198" height="190"/>
<path d="M222.746 266.542V244.601H241.604C248.008 244.601 253.226 239.383 253.226 232.979V201.431C253.226 198.704 254.412 196.213 256.547 194.434L264.968 187.555C267.577 185.421 268.051 181.625 266.035 178.898L249.075 156.127C248.127 154.822 247.534 153.162 247.534 151.383V134.542C247.534 131.577 246.822 128.73 245.399 126.003C238.639 113.313 218.24 83.7814 173.647 83.7814C135.221 83.7814 121.226 107.145 116.126 130.391H91.932V124.461H76.7514V139.641H91.932V133.711H115.415C114.584 138.455 113.991 143.081 113.636 147.588H107.706V141.658H92.6436V156.838H107.824V150.908H113.636C113.398 155.771 113.398 160.396 113.28 164.191H86.0021V158.261H70.9401V173.442H86.0021V167.512H113.28C113.398 171.9 113.991 176.407 115.059 180.795H107.824V174.865H92.6436V190.046H107.824V184.116H115.889C117.194 188.86 118.735 193.485 120.633 197.992H91.932V192.062H76.7514V207.243H91.932V201.313H121.938C129.765 218.984 140.202 233.334 142.336 236.181V266.423C142.336 269.507 144.827 271.879 147.792 271.879H217.054C220.256 271.998 222.746 269.507 222.746 266.542ZM88.6113 136.439H80.0722V127.9H88.6113V136.439ZM104.385 153.636H95.8458V145.097H104.385V153.636ZM82.6813 170.24H74.1422V161.701H82.6813V170.24ZM104.385 186.844H95.8458V178.305H104.385V186.844ZM88.6113 204.041H80.0722V195.501H88.6113V204.041ZM242.434 127.663C243.62 129.798 244.213 132.17 244.213 134.542V151.501C244.213 153.873 245.043 156.245 246.466 158.143L263.426 180.914C264.375 182.218 264.137 183.997 262.951 185.065L254.531 191.943C251.684 194.315 250.024 197.755 250.024 201.431V232.979C250.024 237.485 246.348 241.28 241.722 241.28H219.544C214.089 240.806 206.024 235.469 197.248 226.1C188.59 216.968 180.169 205.227 175.307 195.501C162.261 169.291 167.242 96.9459 168.428 87.3394C170.089 87.2208 171.868 87.1022 173.647 87.1022C216.342 87.2208 236.029 115.447 242.434 127.663ZM145.776 266.542V235.232L145.42 234.758C145.183 234.52 134.153 219.933 125.733 201.431H132.018L143.878 213.291C143.167 214.477 142.811 215.782 142.811 217.205C142.811 221.356 146.25 224.795 150.401 224.795C154.552 224.795 157.992 221.356 157.992 217.205C157.992 213.054 154.552 209.615 150.401 209.615C148.859 209.615 147.436 210.089 146.25 210.919L133.442 198.111H124.309C122.412 193.604 120.752 188.978 119.447 184.235H132.256L143.167 191.943C142.929 192.655 142.811 193.485 142.811 194.434C142.811 198.585 146.25 202.024 150.401 202.024C154.552 202.024 157.992 198.585 157.992 194.434C157.992 190.283 154.552 186.844 150.401 186.844C148.266 186.844 146.369 187.792 144.946 189.216L133.323 181.032H118.498C117.431 176.526 116.719 172.137 116.601 167.749H142.929C143.641 171.189 146.725 173.679 150.401 173.679C154.552 173.679 157.992 170.24 157.992 166.089C157.992 161.938 154.552 158.499 150.401 158.499C146.725 158.499 143.76 160.989 142.929 164.429H116.601C116.601 160.871 116.601 156.245 116.956 151.145H133.323L144.946 142.962C146.369 144.385 148.266 145.334 150.401 145.334C154.552 145.334 157.992 141.895 157.992 137.744C157.992 133.593 154.552 130.154 150.401 130.154C146.25 130.154 142.811 133.593 142.811 137.744C142.811 138.574 142.929 139.404 143.167 140.234L132.256 147.943H117.075C117.431 143.555 118.024 138.811 118.854 134.067H133.442L146.25 121.377C147.436 122.207 148.859 122.682 150.401 122.682C154.552 122.682 157.992 119.242 157.992 115.091C157.992 110.941 154.552 107.501 150.401 107.501C146.25 107.501 142.811 110.941 142.811 115.091C142.811 116.515 143.285 117.938 143.878 119.005L132.018 130.865H119.684C120.87 125.765 122.412 120.784 124.547 116.159C132.137 99.5551 145.776 90.0672 165.107 88.051C163.447 102.164 159.415 171.544 172.342 197.399C181.83 216.493 204.838 244.008 219.426 245.076V267.016C219.426 268.202 218.477 269.151 217.291 269.151H148.029C146.725 268.677 145.776 267.728 145.776 266.542ZM150.283 212.935C152.655 212.935 154.552 214.833 154.552 217.205C154.552 219.577 152.655 221.475 150.283 221.475C147.911 221.475 146.013 219.577 146.013 217.205C146.013 214.833 147.911 212.935 150.283 212.935ZM150.283 190.164C152.655 190.164 154.552 192.062 154.552 194.434C154.552 196.806 152.655 198.704 150.283 198.704C147.911 198.704 146.013 196.806 146.013 194.434C146.013 192.062 147.911 190.164 150.283 190.164ZM146.013 165.97C146.013 163.598 147.911 161.701 150.283 161.701C152.655 161.701 154.552 163.598 154.552 165.97C154.552 168.342 152.655 170.24 150.283 170.24C147.911 170.24 146.013 168.342 146.013 165.97ZM146.013 137.507C146.013 135.135 147.911 133.237 150.283 133.237C152.655 133.237 154.552 135.135 154.552 137.507C154.552 139.879 152.655 141.776 150.283 141.776C147.911 141.776 146.013 139.879 146.013 137.507ZM146.013 114.736C146.013 112.364 147.911 110.466 150.283 110.466C152.655 110.466 154.552 112.364 154.552 114.736C154.552 117.108 152.655 119.005 150.283 119.005C147.911 119.005 146.013 117.108 146.013 114.736Z"/>
</mask>
<path d="M222.746 266.542V244.601H241.604C248.008 244.601 253.226 239.383 253.226 232.979V201.431C253.226 198.704 254.412 196.213 256.547 194.434L264.968 187.555C267.577 185.421 268.051 181.625 266.035 178.898L249.075 156.127C248.127 154.822 247.534 153.162 247.534 151.383V134.542C247.534 131.577 246.822 128.73 245.399 126.003C238.639 113.313 218.24 83.7814 173.647 83.7814C135.221 83.7814 121.226 107.145 116.126 130.391H91.932V124.461H76.7514V139.641H91.932V133.711H115.415C114.584 138.455 113.991 143.081 113.636 147.588H107.706V141.658H92.6436V156.838H107.824V150.908H113.636C113.398 155.771 113.398 160.396 113.28 164.191H86.0021V158.261H70.9401V173.442H86.0021V167.512H113.28C113.398 171.9 113.991 176.407 115.059 180.795H107.824V174.865H92.6436V190.046H107.824V184.116H115.889C117.194 188.86 118.735 193.485 120.633 197.992H91.932V192.062H76.7514V207.243H91.932V201.313H121.938C129.765 218.984 140.202 233.334 142.336 236.181V266.423C142.336 269.507 144.827 271.879 147.792 271.879H217.054C220.256 271.998 222.746 269.507 222.746 266.542ZM88.6113 136.439H80.0722V127.9H88.6113V136.439ZM104.385 153.636H95.8458V145.097H104.385V153.636ZM82.6813 170.24H74.1422V161.701H82.6813V170.24ZM104.385 186.844H95.8458V178.305H104.385V186.844ZM88.6113 204.041H80.0722V195.501H88.6113V204.041ZM242.434 127.663C243.62 129.798 244.213 132.17 244.213 134.542V151.501C244.213 153.873 245.043 156.245 246.466 158.143L263.426 180.914C264.375 182.218 264.137 183.997 262.951 185.065L254.531 191.943C251.684 194.315 250.024 197.755 250.024 201.431V232.979C250.024 237.485 246.348 241.28 241.722 241.28H219.544C214.089 240.806 206.024 235.469 197.248 226.1C188.59 216.968 180.169 205.227 175.307 195.501C162.261 169.291 167.242 96.9459 168.428 87.3394C170.089 87.2208 171.868 87.1022 173.647 87.1022C216.342 87.2208 236.029 115.447 242.434 127.663ZM145.776 266.542V235.232L145.42 234.758C145.183 234.52 134.153 219.933 125.733 201.431H132.018L143.878 213.291C143.167 214.477 142.811 215.782 142.811 217.205C142.811 221.356 146.25 224.795 150.401 224.795C154.552 224.795 157.992 221.356 157.992 217.205C157.992 213.054 154.552 209.615 150.401 209.615C148.859 209.615 147.436 210.089 146.25 210.919L133.442 198.111H124.309C122.412 193.604 120.752 188.978 119.447 184.235H132.256L143.167 191.943C142.929 192.655 142.811 193.485 142.811 194.434C142.811 198.585 146.25 202.024 150.401 202.024C154.552 202.024 157.992 198.585 157.992 194.434C157.992 190.283 154.552 186.844 150.401 186.844C148.266 186.844 146.369 187.792 144.946 189.216L133.323 181.032H118.498C117.431 176.526 116.719 172.137 116.601 167.749H142.929C143.641 171.189 146.725 173.679 150.401 173.679C154.552 173.679 157.992 170.24 157.992 166.089C157.992 161.938 154.552 158.499 150.401 158.499C146.725 158.499 143.76 160.989 142.929 164.429H116.601C116.601 160.871 116.601 156.245 116.956 151.145H133.323L144.946 142.962C146.369 144.385 148.266 145.334 150.401 145.334C154.552 145.334 157.992 141.895 157.992 137.744C157.992 133.593 154.552 130.154 150.401 130.154C146.25 130.154 142.811 133.593 142.811 137.744C142.811 138.574 142.929 139.404 143.167 140.234L132.256 147.943H117.075C117.431 143.555 118.024 138.811 118.854 134.067H133.442L146.25 121.377C147.436 122.207 148.859 122.682 150.401 122.682C154.552 122.682 157.992 119.242 157.992 115.091C157.992 110.941 154.552 107.501 150.401 107.501C146.25 107.501 142.811 110.941 142.811 115.091C142.811 116.515 143.285 117.938 143.878 119.005L132.018 130.865H119.684C120.87 125.765 122.412 120.784 124.547 116.159C132.137 99.5551 145.776 90.0672 165.107 88.051C163.447 102.164 159.415 171.544 172.342 197.399C181.83 216.493 204.838 244.008 219.426 245.076V267.016C219.426 268.202 218.477 269.151 217.291 269.151H148.029C146.725 268.677 145.776 267.728 145.776 266.542ZM150.283 212.935C152.655 212.935 154.552 214.833 154.552 217.205C154.552 219.577 152.655 221.475 150.283 221.475C147.911 221.475 146.013 219.577 146.013 217.205C146.013 214.833 147.911 212.935 150.283 212.935ZM150.283 190.164C152.655 190.164 154.552 192.062 154.552 194.434C154.552 196.806 152.655 198.704 150.283 198.704C147.911 198.704 146.013 196.806 146.013 194.434C146.013 192.062 147.911 190.164 150.283 190.164ZM146.013 165.97C146.013 163.598 147.911 161.701 150.283 161.701C152.655 161.701 154.552 163.598 154.552 165.97C154.552 168.342 152.655 170.24 150.283 170.24C147.911 170.24 146.013 168.342 146.013 165.97ZM146.013 137.507C146.013 135.135 147.911 133.237 150.283 133.237C152.655 133.237 154.552 135.135 154.552 137.507C154.552 139.879 152.655 141.776 150.283 141.776C147.911 141.776 146.013 139.879 146.013 137.507ZM146.013 114.736C146.013 112.364 147.911 110.466 150.283 110.466C152.655 110.466 154.552 112.364 154.552 114.736C154.552 117.108 152.655 119.005 150.283 119.005C147.911 119.005 146.013 117.108 146.013 114.736Z" fill="#8A62FC"/>
<path d="M222.746 266.542V244.601H241.604C248.008 244.601 253.226 239.383 253.226 232.979V201.431C253.226 198.704 254.412 196.213 256.547 194.434L264.968 187.555C267.577 185.421 268.051 181.625 266.035 178.898L249.075 156.127C248.127 154.822 247.534 153.162 247.534 151.383V134.542C247.534 131.577 246.822 128.73 245.399 126.003C238.639 113.313 218.24 83.7814 173.647 83.7814C135.221 83.7814 121.226 107.145 116.126 130.391H91.932V124.461H76.7514V139.641H91.932V133.711H115.415C114.584 138.455 113.991 143.081 113.636 147.588H107.706V141.658H92.6436V156.838H107.824V150.908H113.636C113.398 155.771 113.398 160.396 113.28 164.191H86.0021V158.261H70.9401V173.442H86.0021V167.512H113.28C113.398 171.9 113.991 176.407 115.059 180.795H107.824V174.865H92.6436V190.046H107.824V184.116H115.889C117.194 188.86 118.735 193.485 120.633 197.992H91.932V192.062H76.7514V207.243H91.932V201.313H121.938C129.765 218.984 140.202 233.334 142.336 236.181V266.423C142.336 269.507 144.827 271.879 147.792 271.879H217.054C220.256 271.998 222.746 269.507 222.746 266.542ZM88.6113 136.439H80.0722V127.9H88.6113V136.439ZM104.385 153.636H95.8458V145.097H104.385V153.636ZM82.6813 170.24H74.1422V161.701H82.6813V170.24ZM104.385 186.844H95.8458V178.305H104.385V186.844ZM88.6113 204.041H80.0722V195.501H88.6113V204.041ZM242.434 127.663C243.62 129.798 244.213 132.17 244.213 134.542V151.501C244.213 153.873 245.043 156.245 246.466 158.143L263.426 180.914C264.375 182.218 264.137 183.997 262.951 185.065L254.531 191.943C251.684 194.315 250.024 197.755 250.024 201.431V232.979C250.024 237.485 246.348 241.28 241.722 241.28H219.544C214.089 240.806 206.024 235.469 197.248 226.1C188.59 216.968 180.169 205.227 175.307 195.501C162.261 169.291 167.242 96.9459 168.428 87.3394C170.089 87.2208 171.868 87.1022 173.647 87.1022C216.342 87.2208 236.029 115.447 242.434 127.663ZM145.776 266.542V235.232L145.42 234.758C145.183 234.52 134.153 219.933 125.733 201.431H132.018L143.878 213.291C143.167 214.477 142.811 215.782 142.811 217.205C142.811 221.356 146.25 224.795 150.401 224.795C154.552 224.795 157.992 221.356 157.992 217.205C157.992 213.054 154.552 209.615 150.401 209.615C148.859 209.615 147.436 210.089 146.25 210.919L133.442 198.111H124.309C122.412 193.604 120.752 188.978 119.447 184.235H132.256L143.167 191.943C142.929 192.655 142.811 193.485 142.811 194.434C142.811 198.585 146.25 202.024 150.401 202.024C154.552 202.024 157.992 198.585 157.992 194.434C157.992 190.283 154.552 186.844 150.401 186.844C148.266 186.844 146.369 187.792 144.946 189.216L133.323 181.032H118.498C117.431 176.526 116.719 172.137 116.601 167.749H142.929C143.641 171.189 146.725 173.679 150.401 173.679C154.552 173.679 157.992 170.24 157.992 166.089C157.992 161.938 154.552 158.499 150.401 158.499C146.725 158.499 143.76 160.989 142.929 164.429H116.601C116.601 160.871 116.601 156.245 116.956 151.145H133.323L144.946 142.962C146.369 144.385 148.266 145.334 150.401 145.334C154.552 145.334 157.992 141.895 157.992 137.744C157.992 133.593 154.552 130.154 150.401 130.154C146.25 130.154 142.811 133.593 142.811 137.744C142.811 138.574 142.929 139.404 143.167 140.234L132.256 147.943H117.075C117.431 143.555 118.024 138.811 118.854 134.067H133.442L146.25 121.377C147.436 122.207 148.859 122.682 150.401 122.682C154.552 122.682 157.992 119.242 157.992 115.091C157.992 110.941 154.552 107.501 150.401 107.501C146.25 107.501 142.811 110.941 142.811 115.091C142.811 116.515 143.285 117.938 143.878 119.005L132.018 130.865H119.684C120.87 125.765 122.412 120.784 124.547 116.159C132.137 99.5551 145.776 90.0672 165.107 88.051C163.447 102.164 159.415 171.544 172.342 197.399C181.83 216.493 204.838 244.008 219.426 245.076V267.016C219.426 268.202 218.477 269.151 217.291 269.151H148.029C146.725 268.677 145.776 267.728 145.776 266.542ZM150.283 212.935C152.655 212.935 154.552 214.833 154.552 217.205C154.552 219.577 152.655 221.475 150.283 221.475C147.911 221.475 146.013 219.577 146.013 217.205C146.013 214.833 147.911 212.935 150.283 212.935ZM150.283 190.164C152.655 190.164 154.552 192.062 154.552 194.434C154.552 196.806 152.655 198.704 150.283 198.704C147.911 198.704 146.013 196.806 146.013 194.434C146.013 192.062 147.911 190.164 150.283 190.164ZM146.013 165.97C146.013 163.598 147.911 161.701 150.283 161.701C152.655 161.701 154.552 163.598 154.552 165.97C154.552 168.342 152.655 170.24 150.283 170.24C147.911 170.24 146.013 168.342 146.013 165.97ZM146.013 137.507C146.013 135.135 147.911 133.237 150.283 133.237C152.655 133.237 154.552 135.135 154.552 137.507C154.552 139.879 152.655 141.776 150.283 141.776C147.911 141.776 146.013 139.879 146.013 137.507ZM146.013 114.736C146.013 112.364 147.911 110.466 150.283 110.466C152.655 110.466 154.552 112.364 154.552 114.736C154.552 117.108 152.655 119.005 150.283 119.005C147.911 119.005 146.013 117.108 146.013 114.736Z" stroke="#8A62FC" stroke-width="0.4" mask="url(#path-1-outside-1_520_200)"/>
<path d="M78.9622 91.1998C98.727 68.2395 125.82 52.8437 155.401 47.6094V67.059V67.2091L155.54 67.1513L205.826 46.1593L206.047 46.0668L205.825 45.9747L155.539 25.1013L155.401 25.0439V25.1937V43.9665C124.812 49.2034 96.7156 65.1001 76.32 88.816C55.3123 113.147 43.7998 144.362 43.7998 176.526C43.7998 222.669 66.9181 264.782 105.689 289.711C105.465 290.409 105.353 291.11 105.353 291.922C105.353 296.128 108.837 299.612 113.043 299.612C117.249 299.612 120.733 296.128 120.733 291.922C120.733 287.715 117.367 284.35 113.043 284.35C110.789 284.35 108.886 285.288 107.453 286.812C69.8089 262.511 47.3205 221.531 47.3205 176.644C47.3205 145.358 58.5787 115.02 78.9622 91.1998ZM158.922 61.8095V30.3246L196.868 46.067L158.922 61.8095ZM113.043 296.21C110.726 296.21 108.873 294.357 108.873 292.041C108.873 289.724 110.726 287.871 113.043 287.871C115.36 287.871 117.212 289.724 117.212 292.041C117.212 294.357 115.36 296.21 113.043 296.21Z" fill="#8A62FC" stroke="#8A62FC" stroke-width="0.2"/>
<path d="M277.819 261.97C258.054 284.93 230.961 300.326 201.38 305.56V287.059V286.91L201.242 286.967L150.956 307.84L150.733 307.933L150.956 308.025L201.242 328.899L201.38 328.956V328.806V309.203C232.088 303.966 260.066 288.07 280.58 264.354L280.509 264.293L280.58 264.354C301.587 240.023 313.1 208.808 313.1 176.644V176.644C312.981 131.096 290.34 89.1042 252.283 64.0559C252.621 63.228 252.733 62.2976 252.733 61.4848C252.733 57.2786 249.249 53.7945 245.043 53.7945C240.837 53.7945 237.353 57.2786 237.353 61.4848C237.353 65.691 240.837 69.1751 245.043 69.1751C247.059 69.1751 248.957 68.356 250.39 67.0665C287.444 91.4842 309.461 132.229 309.461 176.526C309.461 207.93 298.202 238.268 277.819 261.97ZM245.043 65.6543C242.726 65.6543 240.873 63.8015 240.873 61.4848C240.873 59.168 242.726 57.3152 245.043 57.3152C247.36 57.3152 249.212 59.168 249.212 61.4848C249.212 63.8015 247.36 65.6543 245.043 65.6543ZM197.741 292.19V323.675L159.794 307.933L197.741 292.19Z" fill="#8A62FC" stroke="#8A62FC" stroke-width="0.2"/>
</svg>
