<svg width="355" height="355" viewBox="0 0 355 355" fill="none" xmlns="http://www.w3.org/2000/svg">
<path d="M264.368 59.9716L234.864 43.4663L250.333 12L279.837 28.5053L264.368 59.9716ZM240.122 41.752L262.695 54.4037L274.552 30.3187L251.979 17.6812L240.122 41.752Z" fill="#8A62FC"/>
<path d="M257.564 171.1L194.858 233.807L197.716 236.664L260.422 173.958L257.564 171.1Z" fill="#8A62FC"/>
<path d="M270.842 173.905H255.851V161.912H270.842V173.905ZM259.748 170.789H266.945V165.037H259.748V170.789Z" fill="#8A62FC"/>
<path d="M280.97 147.968L276.786 152.152L279.644 155.01L283.828 150.826L280.97 147.968Z" fill="#8A62FC"/>
<path d="M30.8101 236.866L27.9861 234.042L130.288 131.229L68.16 68.7917L70.984 65.9673L135.922 131.229L30.8101 236.866Z" fill="#8A62FC"/>
<path d="M189.875 155.915C184.539 155.913 179.323 154.416 174.888 151.614C170.452 148.812 166.996 144.831 164.955 140.174C162.915 135.517 162.383 130.393 163.426 125.45C164.468 120.508 167.04 115.968 170.814 112.405C174.588 108.842 179.396 106.417 184.63 105.434C189.864 104.452 195.289 104.957 200.219 106.887C205.149 108.816 209.362 112.083 212.327 116.273C215.291 120.464 216.873 125.391 216.873 130.43C216.847 137.184 213.994 143.654 208.936 148.428C203.878 153.203 197.026 155.894 189.875 155.915V155.915ZM189.875 108.89C185.364 108.89 180.955 110.153 177.204 112.52C173.453 114.887 170.53 118.251 168.804 122.187C167.078 126.123 166.626 130.454 167.506 134.633C168.386 138.811 170.558 142.649 173.748 145.662C176.938 148.674 181.001 150.726 185.426 151.557C189.85 152.388 194.436 151.961 198.603 150.331C202.771 148.701 206.333 145.94 208.839 142.398C211.345 138.855 212.683 134.691 212.683 130.43C212.683 124.718 210.28 119.239 206.002 115.199C201.725 111.16 195.924 108.89 189.875 108.89Z" fill="#8A62FC"/>
<path d="M156.909 173.904C155.13 173.904 153.391 173.288 151.912 172.135C150.433 170.982 149.28 169.343 148.599 167.426C147.918 165.508 147.74 163.398 148.087 161.363C148.434 159.327 149.291 157.457 150.549 155.99C151.807 154.522 153.41 153.523 155.154 153.118C156.899 152.713 158.708 152.921 160.351 153.715C161.995 154.509 163.4 155.854 164.388 157.58C165.376 159.305 165.904 161.334 165.904 163.41C165.9 166.192 164.951 168.858 163.265 170.825C161.579 172.792 159.294 173.899 156.909 173.904V173.904ZM156.909 157.583C155.918 157.583 154.949 157.926 154.126 158.569C153.302 159.212 152.66 160.125 152.281 161.194C151.903 162.262 151.804 163.438 151.999 164.571C152.193 165.705 152.671 166.746 153.373 167.562C154.075 168.379 154.968 168.934 155.941 169.158C156.913 169.381 157.92 169.263 158.835 168.819C159.75 168.374 160.531 167.623 161.079 166.66C161.628 165.697 161.919 164.566 161.917 163.41C161.913 161.863 161.384 160.381 160.445 159.289C159.507 158.197 158.235 157.583 156.909 157.583Z" fill="#8A62FC"/>
<path d="M273.726 206.884L270.842 203.964L341.702 132.21L341.618 113.954L345.714 113.939L345.798 133.917L345.199 134.523L273.726 206.884Z" fill="#8A62FC"/>
<path d="M318.813 236.867H4V41.9827H237.038V45.9738H8.05428V232.89H314.759V45.9738H273.637V41.9827H318.813V236.867Z" fill="#8A62FC"/>
<path d="M315.815 68.9667H4V41.9827H235.671V45.8413H8.01062V65.1081H311.805V45.8413H270.042V41.9827H315.815V68.9667Z" fill="#8A62FC"/>
<path d="M161.366 344.802L138.921 322.316L161.366 299.829L183.894 322.316L161.366 344.802ZM144.632 322.302L161.366 339.067L178.1 322.302L161.366 305.551L144.632 322.302Z" fill="#8A62FC"/>
<path d="M162.906 284.838H159.908V293.833H162.906V284.838Z" fill="#8A62FC"/>
<path d="M162.906 248.86H159.908V278.842H162.906V248.86Z" fill="#8A62FC"/>
<path d="M30.9843 53.9751H27.9861V56.9733H30.9843V53.9751Z" fill="#8A62FC"/>
<path d="M42.9766 53.9751H39.9784V56.9733H42.9766V53.9751Z" fill="#8A62FC"/>
<path d="M54.9694 53.9751H51.9712V56.9733H54.9694V53.9751Z" fill="#8A62FC"/>
<path d="M342.799 113.939C341.02 113.939 339.281 113.412 337.802 112.423C336.323 111.435 335.17 110.03 334.489 108.387C333.808 106.743 333.63 104.935 333.977 103.19C334.324 101.445 335.181 99.8424 336.439 98.5844C337.697 97.3265 339.299 96.4698 341.044 96.1228C342.789 95.7757 344.598 95.9538 346.241 96.6346C347.885 97.3154 349.289 98.4683 350.278 99.9475C351.266 101.427 351.794 103.166 351.794 104.945C351.79 107.329 350.841 109.615 349.155 111.301C347.469 112.987 345.183 113.936 342.799 113.939V113.939ZM342.799 99.937C341.808 99.9343 340.839 100.226 340.013 100.774C339.188 101.323 338.544 102.104 338.163 103.019C337.782 103.934 337.681 104.941 337.872 105.913C338.064 106.885 338.54 107.779 339.24 108.481C339.939 109.182 340.832 109.661 341.803 109.855C342.775 110.049 343.783 109.951 344.699 109.572C345.614 109.194 346.397 108.552 346.948 107.728C347.499 106.904 347.793 105.936 347.793 104.945C347.793 103.619 347.267 102.347 346.331 101.408C345.395 100.47 344.125 99.9406 342.799 99.937V99.937Z" fill="#8A62FC"/>
</svg>
