<svg width="355" height="355" viewBox="0 0 355 355" fill="none" xmlns="http://www.w3.org/2000/svg">
<path fill-rule="evenodd" clip-rule="evenodd" d="M309.886 217.892C305.68 217.892 302.243 214.524 302.243 210.384C302.243 206.247 305.68 202.88 309.886 202.88C314.092 202.88 317.51 206.247 317.51 210.384C317.51 214.524 314.092 217.892 309.886 217.892ZM242.514 294.517C240.944 293.676 239.146 293.194 237.229 293.194C235.291 293.194 233.46 293.692 231.854 294.566L213.882 271.877C215.73 269.92 216.882 267.29 216.882 264.421C216.882 263.186 216.657 262.002 216.273 260.901L301.004 216.93C301.266 217.289 301.544 217.615 301.842 217.925L242.514 294.517ZM237.229 311.658C233.023 311.658 229.602 308.293 229.602 304.153C229.602 299.997 233.023 296.629 237.229 296.629C241.451 296.629 244.872 299.997 244.872 304.153C244.872 308.293 241.451 311.658 237.229 311.658ZM226.27 302.435H128.746C128.677 302.005 128.59 301.611 128.468 301.197L196.502 270.485C198.509 273.425 201.894 275.365 205.749 275.365C207.705 275.365 209.537 274.866 211.126 273.992L229.115 296.698C227.631 298.243 226.618 300.235 226.27 302.435ZM118.907 293.246L116.096 244.121C119.325 243.433 122.03 241.373 123.547 238.573L194.81 262.55C194.704 263.153 194.635 263.786 194.635 264.421C194.635 265.438 194.793 266.416 195.055 266.707L127.021 297.438C125.223 295.427 122.292 293.588 118.907 293.246ZM117.774 311.658C113.569 311.658 110.148 308.293 110.148 304.153C110.148 299.997 113.569 296.629 117.774 296.629C121.977 296.629 125.398 299.997 125.398 304.153C125.398 308.293 121.977 311.658 117.774 311.658ZM53.158 217.925C53.8566 217.204 54.4662 216.398 54.9561 215.503L102.783 231.597C102.68 232.2 102.61 232.8 102.61 233.435C102.61 239.088 107.005 243.76 112.608 244.327L115.417 293.451C114.387 293.676 113.41 294.035 112.502 294.517L53.158 217.925ZM45.1335 217.892C40.9111 217.892 37.4904 214.524 37.4904 210.384C37.4904 206.247 40.9111 202.88 45.1335 202.88C49.3392 202.88 52.7572 206.247 52.7572 210.384C52.7572 214.524 49.3392 217.892 45.1335 217.892ZM73.1733 108.458C73.5045 108.475 73.8525 108.511 74.1837 108.511C75.8955 108.511 77.5015 108.116 78.9488 107.428L123.043 170.674C120.914 172.666 119.569 175.483 119.569 178.609C119.569 179.363 119.639 180.102 119.798 180.807L54.7807 204.976C53.5783 202.912 51.7441 201.282 49.5118 200.337L73.1733 108.458ZM66.56 97.5535C66.56 93.4135 69.9808 90.0461 74.1837 90.0461C78.3894 90.0461 81.8101 93.4135 81.8101 97.5535C81.8101 101.691 78.3894 105.075 74.1837 105.075C69.9808 105.075 66.56 101.691 66.56 97.5535ZM85.3005 97.5535C85.3005 96.5562 85.1613 95.5753 84.8969 94.6656L168.217 57.4956C169.211 58.9559 170.555 60.1917 172.125 61.052L132.796 167.855C132.114 167.734 131.402 167.649 130.686 167.649C128.975 167.649 127.369 168.044 125.921 168.732L81.8268 105.488C83.9728 103.496 85.3005 100.677 85.3005 97.5535ZM177.5 43.9602C181.706 43.9602 185.143 47.3276 185.143 51.4677C185.143 55.6077 181.706 58.9751 177.5 58.9751C173.294 58.9751 169.876 55.6077 169.876 51.4677C169.876 47.3276 173.294 43.9602 177.5 43.9602ZM186.783 57.4956L270.103 94.6656C269.858 95.5753 269.7 96.5562 269.7 97.5535C269.7 100.765 271.113 103.633 273.349 105.642L246.216 146.401C242.848 144.565 238.957 143.5 234.821 143.5C231.715 143.5 228.764 144.1 226.062 145.165L183.905 60.4163C185.04 59.6245 186.017 58.6299 186.783 57.4956ZM280.833 90.0461C285.039 90.0461 288.459 93.4135 288.459 97.5535C288.459 101.691 285.039 105.075 280.833 105.075C276.611 105.075 273.19 101.691 273.19 97.5535C273.19 93.4135 276.611 90.0461 280.833 90.0461ZM205.749 256.9C209.974 256.9 213.394 260.265 213.394 264.421C213.394 268.561 209.974 271.929 205.749 271.929C201.546 271.929 198.125 268.561 198.125 264.421C198.125 260.265 201.546 256.9 205.749 256.9ZM139.164 185.667C140.718 183.864 141.678 181.579 141.781 179.056L211.699 171.05C213.253 179.037 218.975 185.566 226.549 188.366L207.162 253.569C206.712 253.516 206.238 253.464 205.749 253.464C203.622 253.464 201.615 254.081 199.923 255.114L139.164 185.667ZM113.741 225.914C117.947 225.914 121.368 229.279 121.368 233.435C121.368 237.575 117.947 240.943 113.741 240.943C109.538 240.943 106.101 237.575 106.101 233.435C106.101 229.279 109.538 225.914 113.741 225.914ZM138.327 178.609C138.327 182.746 134.889 186.114 130.686 186.114C126.478 186.114 123.06 182.746 123.06 178.609C123.06 174.453 126.478 171.085 130.686 171.085C134.889 171.085 138.327 174.453 138.327 178.609ZM234.821 146.935C245.882 146.935 254.886 155.796 254.886 166.688C254.886 177.579 245.882 186.44 234.821 186.44C223.757 186.44 214.753 177.579 214.753 166.688C214.753 155.796 223.757 146.935 234.821 146.935ZM211.262 166.688C211.262 167.014 211.299 167.323 211.315 167.649L141.38 175.653C140.578 172.803 138.641 170.433 136.078 169.025L175.407 62.2192C176.086 62.3398 176.785 62.4083 177.5 62.4083C178.636 62.4083 179.735 62.2548 180.762 61.9288L222.939 146.694C215.958 150.73 211.262 158.169 211.262 166.688ZM56.0193 208.17L121.036 184.021C122.152 185.925 123.809 187.47 125.835 188.435L115.261 222.599C114.771 222.528 114.248 222.478 113.741 222.478C109.466 222.478 105.769 224.865 103.902 228.336L56.0722 212.258C56.178 211.639 56.2476 211.02 56.2476 210.384C56.2476 209.628 56.178 208.891 56.0193 208.17ZM118.593 223.594L129.167 189.429C129.656 189.498 130.18 189.55 130.686 189.55C132.832 189.55 134.82 188.95 136.531 187.9L197.27 257.347C196.764 257.947 196.31 258.599 195.926 259.303L124.683 235.326C124.788 234.707 124.855 234.071 124.855 233.435C124.855 229.109 122.292 225.38 118.593 223.594ZM299.365 213.905L214.65 257.862C213.567 256.454 212.153 255.303 210.514 254.53L229.9 189.361C231.486 189.687 233.129 189.876 234.821 189.876C242.812 189.876 249.862 185.925 254.138 179.913L299.574 206.384C299.067 207.62 298.752 208.96 298.752 210.384C298.752 211.623 298.981 212.79 299.365 213.905ZM305.488 200.337C303.866 201.025 302.452 202.088 301.335 203.411L255.9 176.96C257.469 173.85 258.377 170.381 258.377 166.688C258.377 159.199 254.73 152.552 249.128 148.308L276.26 107.532C277.657 108.149 279.194 108.511 280.833 108.511C281.164 108.511 281.495 108.475 281.827 108.458L305.488 200.337ZM309.886 199.444C309.538 199.444 309.204 199.46 308.873 199.496L285.214 107.617C289.175 105.935 291.947 102.052 291.947 97.5535C291.947 91.5229 286.959 86.6102 280.833 86.6102C276.959 86.6102 273.538 88.5692 271.55 91.5229L188.213 54.3693C188.475 53.4404 188.634 52.465 188.634 51.4677C188.634 45.4398 183.643 40.5271 177.5 40.5271C171.377 40.5271 166.386 45.4398 166.386 51.4677C166.386 52.465 166.525 53.4404 166.787 54.3693L83.469 91.5229C81.4789 88.5692 78.0581 86.6102 74.1837 86.6102C68.0602 86.6102 63.0696 91.5229 63.0696 97.5535C63.0696 102.052 65.8447 105.935 69.7887 107.617L46.1272 199.496C45.796 199.46 45.4647 199.444 45.1335 199.444C38.9906 199.444 34 204.356 34 210.384C34 216.431 38.9906 221.328 45.1335 221.328C47.0346 221.328 48.8299 220.862 50.4025 220.021L109.727 296.594C107.826 298.569 106.657 301.216 106.657 304.153C106.657 310.181 111.648 315.094 117.774 315.094C123.305 315.094 127.911 311.091 128.746 305.869H226.27C227.108 311.091 231.698 315.094 237.229 315.094C243.372 315.094 248.362 310.181 248.362 304.153C248.362 301.216 247.174 298.569 245.273 296.594L304.614 220.021C306.187 220.862 307.982 221.328 309.886 221.328C316.009 221.328 321 216.431 321 210.384C321 204.356 316.009 199.444 309.886 199.444Z" fill="#8A62FC"/>
<path fill-rule="evenodd" clip-rule="evenodd" d="M232.797 177.109V180.401H237.143V177.146C240.708 176.538 243.139 174.372 244 170.957L240.371 170.053C239.537 172.19 238.016 173.728 235.011 173.728C231.664 173.728 228.841 171.439 228.841 166.559C228.841 161.683 231.664 159.394 235.011 159.394C238.016 159.394 239.537 160.928 240.371 163.068L244 162.164C243.139 158.746 240.708 156.581 237.143 155.973V152.771H232.797V156.009C228.34 156.89 224.75 160.466 224.75 166.559C224.75 172.652 228.34 176.228 232.797 177.109Z" fill="#8A62FC"/>
</svg>
