<svg width="355" height="355" viewBox="0 0 355 355" fill="none" xmlns="http://www.w3.org/2000/svg">
<path d="M179.166 149.615C179.166 149.888 178.894 149.888 178.894 150.192C178.894 150.495 177.775 150.192 175.235 147.643C172.695 145.094 172.695 144.245 172.695 143.972L173.814 142.849C182.281 134.657 233.865 84.5621 238.945 80.8908C239.792 80.3143 240.366 79.7681 240.911 79.4647C240.336 80.3143 239.792 81.1639 238.945 82.2865C234.712 87.657 187.905 139.936 180.285 148.219C179.831 149.069 179.166 149.342 179.166 149.615ZM297.968 226.866C290.2 226.832 283.911 220.521 283.878 212.726C283.898 212.056 283.958 211.387 284.059 210.724C285.215 203.556 291.634 198.461 298.851 198.981C306.068 199.502 311.695 205.466 311.817 212.726C311.826 216.612 310.188 220.319 307.311 222.921C304.923 225.545 301.508 226.987 297.968 226.866ZM300.508 291.949C297.356 291.402 294.245 290.642 291.195 289.673C285.843 288.551 279.644 296.166 270.331 307.878C259.627 321.168 245.809 338.433 229.148 345.806C243.239 335.611 253.338 316.101 260.716 297.259C270.301 287.913 276.228 282.27 284.12 275.2C289.199 270.679 290.167 270.376 295.126 272.166C298.785 273.592 302.171 274.988 302.171 274.988C304.711 276.687 306.676 277.81 307.523 278.386C305.515 283.072 303.171 287.604 300.508 291.949ZM281.713 94.7846L312.729 63.3444L315.36 65.9167L284.344 97.357L281.713 94.7846ZM247.502 128.983L217.053 160.083L219.593 162.632L250.042 131.531H273.718V105.195H247.502V128.983ZM251.463 109.23H270.362V128.194H251.463V109.23ZM199.576 82.5596L200.997 83.9857L231.235 53.128H260.807V38.9886H281.398V35.3173H260.807V23.1805L275.925 8.00958L273.385 5.46086L257.36 20.8745H246.384V0.515137H242.664V20.8745H228.604V50.0331L198.155 81.1639L198.427 81.4369L199.576 82.5596ZM232.565 24.5459H257.087V49.1532H232.565V24.5459ZM208.448 203.427H212.107V215.321H208.448V203.427ZM163.201 172.25L159.421 171.492C160.045 168.856 159.529 166.078 158 163.845C155.69 161.882 152.65 161.009 149.655 161.448L149.383 157.777C153.635 157.079 157.963 158.467 161.024 161.509C163.213 164.627 164.002 168.522 163.201 172.25ZM167.706 138.298C156.156 131.501 142.882 130.651 128.398 135.476V121.61C128.354 120.952 128.049 120.34 127.551 119.91C127.023 119.625 126.387 119.625 125.858 119.91C117.119 125.008 112.04 130.651 110.921 146.217C103.908 153.972 98.6202 163.136 95.4092 173.1L88.0918 165.454C87.6422 165.016 87.0205 164.805 86.3985 164.877C85.7643 164.982 85.2279 165.406 84.9773 166C78.5066 183.841 72.5801 205.899 81.0163 226.684L62.6925 208.478C62.5578 207.648 61.8377 207.041 60.9993 207.052C60.0026 206.863 58.9926 207.309 58.4593 208.175C55.4356 212.696 50.8396 241.278 71.1589 273.531C78.5428 283.889 88.1935 292.41 99.3702 298.442C134.324 315.434 156.609 308.637 177.201 297.866C171.164 312.139 158.508 322.512 143.365 325.598C142.557 325.766 141.969 326.469 141.944 327.297L141.098 349.083H4.72782V313.734L40.2565 282.604C40.8205 282.118 41.0458 281.345 40.831 280.631C40.6261 279.885 39.9026 279.405 39.1378 279.509H4.15332V247.255L42.4941 208.205C42.9611 207.696 43.08 206.955 42.7965 206.324C42.4942 205.654 41.8358 205.218 41.1032 205.201H24.1703L113.854 115.116H147.961C154.009 115.116 162.354 117.392 166.588 122.763C168.734 124.912 169.772 127.935 169.4 130.955L167.706 138.298ZM311.242 275.837C311.242 275.837 309.549 274.715 304.197 271.589C304.197 271.589 300.538 269.89 296.577 268.555C289.804 266.28 287.506 267.129 281.912 272.227C275.441 277.901 270.362 282.695 263.77 288.915C265.735 283.241 267.731 277.87 269.424 273.076C272.236 264.884 275.472 255.539 277.044 254.113C282.42 254.622 287.717 255.763 292.828 257.511C293.683 257.675 294.557 257.348 295.096 256.661C298.743 249.155 301.855 241.398 304.409 233.45C304.718 232.586 304.36 231.624 303.562 231.174L301.869 230.325C304.858 229.716 307.602 228.239 309.761 226.077C313.412 222.748 315.47 218.01 315.415 213.06C315.365 203.395 307.57 195.572 297.938 195.522C289.214 195.398 281.774 201.835 280.612 210.511C280.497 211.356 280.437 212.207 280.431 213.06C280.48 217.705 282.297 222.156 285.51 225.5C284.936 225.5 284.392 225.227 283.817 225.227C281.005 224.651 275.653 226.926 256.604 248.135C222.98 285.213 214.786 289.704 204.354 283.18L210.401 268.464C210.588 267.798 210.489 267.083 210.129 266.492C209.69 265.86 208.872 265.62 208.164 265.916L192.078 270.74L175.598 255.175C171.925 251.873 169.908 247.102 170.095 242.158C170.67 233.389 178.259 225.743 181.374 222.921L198.851 240.459C199.238 240.82 199.744 241.025 200.272 241.035C200.846 241.035 201.118 240.762 201.693 240.459L221.498 220.099C221.858 219.711 222.063 219.203 222.073 218.673V199.71C222.061 199.267 221.85 198.854 221.498 198.587L195.555 170.854L194.98 162.359C194.969 161.916 194.757 161.503 194.406 161.236L183.974 151.041C191.594 142.545 238.673 90.2057 242.906 83.9857C247.139 77.7656 248.258 75.4899 246.867 74.0942C245.476 72.6985 242.906 73.8211 237.796 77.4925C231.325 81.4673 178.289 132.957 170.67 140.3L172.635 131.531C173.271 127.439 172.026 123.278 169.248 120.214C163.512 114.603 155.821 111.457 147.81 111.445H113.007C112.433 111.445 112.161 111.718 111.586 112.022L18.2439 205.384C17.7473 205.917 17.6384 206.707 17.9717 207.356C18.274 208.026 18.9324 208.462 19.665 208.478H36.87L1.03889 244.98C0.812304 245.418 0.717755 245.914 0.766751 246.406V281.208C0.713575 282.214 1.46025 283.084 2.46003 283.18H34.33L1.61339 311.762C1.25353 312.15 1.04898 312.658 1.03889 313.188V351.116C0.98571 352.122 1.73239 352.992 2.73217 353.088H142.882C143.791 353.029 144.516 352.301 144.575 351.389L145.422 329.33C162.931 325.212 176.936 312.06 182.19 294.801C182.405 294.087 182.179 293.314 181.615 292.829C181.083 292.331 180.297 292.221 179.65 292.556C158.786 303.873 137.076 312.369 101.245 295.104C90.764 289.25 81.7072 281.136 74.7269 271.347C57.1591 243.584 59.1245 218.673 61.2412 211.604L88.4546 238.911C89.1801 239.566 90.2811 239.564 91.005 238.908C91.7289 238.252 91.8419 237.153 91.2667 236.363C78.2949 219.371 77.1761 199.285 87.608 170.157L94.9254 177.803C95.375 178.24 95.9966 178.452 96.6187 178.379C97.283 178.144 97.8055 177.62 98.0398 176.953C100.95 166.216 106.36 156.327 113.824 148.098C114.123 147.79 114.323 147.399 114.398 146.975C115.245 133.109 119.206 128.285 124.83 124.613V137.448C124.813 138.048 125.143 138.604 125.677 138.874C126.164 139.234 126.795 139.336 127.37 139.147C143.154 133.473 157.274 134.626 169.097 143.122C168.825 145.094 170.216 147.37 172.756 149.919C174.326 151.837 176.522 153.138 178.955 153.59H179.801C180.073 153.59 180.073 153.59 180.376 153.317L190.535 163.208L191.11 171.401C191.122 171.843 191.333 172.256 191.684 172.523L217.628 200.256V217.793L199.304 236.181L182.19 218.946C181.437 218.38 180.403 218.38 179.65 218.946C179.076 219.219 166.406 229.414 165.832 241.854C165.678 247.873 168.152 253.658 172.605 257.693L189.81 274.108C190.259 274.545 190.881 274.757 191.503 274.684L205.049 270.71L199.969 283.453C199.712 284.26 199.935 285.143 200.544 285.729C214.362 295.347 223.675 289.704 258.63 250.927C277.256 230.264 281.761 228.868 282.608 229.141C288.608 230.025 294.478 231.646 300.085 233.966C298.966 236.787 296.698 243.584 291.921 253.779C286.771 252.251 281.485 251.235 276.137 250.745H275.562C272.75 251.867 270.483 257.814 265.403 272.257C255.545 300.839 239.187 348.658 208.738 349.234C207.619 349.234 207.045 350.084 207.045 351.207C207.045 352.329 207.892 352.906 209.01 352.906H216.328C240.003 351.207 258.902 327.722 272.72 310.427C279.493 301.931 286.811 292.89 289.925 293.739C293.523 294.871 297.203 295.723 300.931 296.288C301.678 296.305 302.396 295.995 302.897 295.438C306.24 289.952 309.268 284.279 311.968 278.447C312.21 277.233 311.787 276.11 311.242 275.837Z" fill="#8A62FC"/>
</svg>
