<svg width="355" height="355" viewBox="0 0 355 355" fill="none" xmlns="http://www.w3.org/2000/svg">
<g clip-path="url(#clip0_520_190)">
<path fill-rule="evenodd" clip-rule="evenodd" d="M328.922 205.816L302.843 179.45L328.922 153.083L355 179.45L328.922 205.816ZM307.628 179.45L328.922 200.978L350.215 179.45L328.922 157.921L307.628 179.45ZM283.284 177.493H293.435V180.914H283.284V177.493ZM261.212 177.493L272.973 177.493V180.914L261.212 180.914V177.493ZM235.869 93.6764H264.631V124.466H235.869L235.869 93.6764ZM239.253 121.045H261.247V97.0975H239.253L239.253 121.045ZM239.055 177.493H249.448V180.914H239.055V177.493ZM204.38 232.471L204.864 232.476C211.364 232.69 214.758 236.782 216.345 241.065C218.357 237.456 221.883 234.187 227.574 234.187C234.125 234.187 237.83 238.521 239.657 242.721C241.66 238.944 245.623 234.324 251.693 234.556C261.562 234.97 264.43 247.213 264.57 247.734L264.629 248.182V339.812L262.937 341.523L166.545 341.523L164.853 339.812V325.514L124.939 281.533C121.946 277.963 118.168 269.412 124.958 262.209C127.7 259.298 130.959 257.823 134.642 257.823C140.692 257.823 145.659 261.894 145.869 262.067L146.028 262.221L166.547 284.601L166.547 230.316C145.17 223.951 130.358 204.088 130.358 181.405C130.358 153.266 152.998 130.376 180.828 130.376C208.656 130.376 231.298 153.266 231.298 181.405C231.298 204.769 215.849 224.88 193.617 230.745V238.258C195.797 235.037 199.41 232.471 204.38 232.471ZM227.914 181.405C227.914 155.153 206.793 133.799 180.828 133.799C154.865 133.799 133.742 155.153 133.742 181.405C133.742 202.227 147.121 220.503 166.547 226.741V185.715C166.542 185.474 166.689 178.901 170.892 174.557C173.24 172.13 176.414 170.899 180.322 170.899C184.108 170.899 187.208 172.117 189.534 174.52C193.958 179.087 193.622 186.268 193.615 186.572V227.194C213.895 221.435 227.914 202.899 227.914 181.405V181.405ZM193.608 247.555L190.233 247.382V186.536C190.235 186.444 190.534 180.425 187.106 176.899C185.442 175.187 183.158 174.32 180.322 174.32C177.358 174.32 174.998 175.204 173.308 176.947C170.091 180.274 169.927 185.623 169.929 185.676L169.929 288.924L167.004 290.094L143.646 264.651C143.06 264.195 139.107 261.244 134.642 261.244C131.921 261.244 129.487 262.363 127.409 264.568C121.036 271.331 127.211 278.946 127.478 279.27L167.79 323.686L168.239 324.849V338.104L261.247 338.104V248.432C260.801 246.987 258.363 238.261 251.554 237.976L251.233 237.969C244.151 237.969 241.024 247.738 240.996 247.84L237.686 247.594C237.632 247.173 236.248 237.611 227.576 237.611C218.864 237.611 217.585 247.16 217.535 247.585L214.161 247.36C214.168 246.888 214.178 236.205 204.756 235.897L204.38 235.892C195.17 235.89 193.618 247.433 193.608 247.555V247.555ZM221.316 135.545L227.838 128.168L230.362 130.451L223.837 137.827L221.316 135.545V135.545ZM181.857 117.621L178.473 117.631L178.444 107.368L181.828 107.357L181.857 117.621ZM178.388 86.8394L181.772 86.8292L181.801 97.0941L178.417 97.1009L178.388 86.8394V86.8394ZM147.192 46.0294L180.039 12.8193L212.884 46.0294L180.039 79.2344L147.192 46.0294V46.0294ZM180.039 17.6567L151.977 46.0294L180.039 74.397L208.099 46.0294L180.039 17.6567ZM170.799 46.5323C170.799 41.5752 174.785 37.5417 179.688 37.5417C184.591 37.5417 188.578 41.5735 188.578 46.5323C188.578 51.486 184.591 55.5195 179.688 55.5195C174.785 55.5195 170.799 51.486 170.799 46.5323ZM185.195 46.5323C185.195 43.4602 182.724 40.9628 179.688 40.9628C176.651 40.9628 174.181 43.4602 174.181 46.5323C174.181 49.601 176.651 52.0984 179.688 52.0984C182.724 52.0984 185.195 49.601 185.195 46.5323ZM132.378 134.146L134.569 131.537L142.308 138.179L140.117 140.79L132.378 134.146V134.146ZM117.699 121.545L119.89 118.936L127.627 125.58L125.438 128.188L117.699 121.545ZM125.941 180.914H115.789V177.493H125.941V180.914ZM86.9854 86.8343H115.747V115.913H86.9854V86.8343V86.8343ZM90.3691 112.492H112.363V90.2571H90.3691V112.492V112.492ZM71.8009 177.493H81.9521V180.914H71.8009V177.493ZM0 179.45L32.8458 146.241L65.6916 179.45L32.8458 212.656L0 179.45ZM32.8458 151.079L4.78459 179.45L32.8458 207.817L60.9053 179.45L32.8458 151.079ZM105.479 180.914H93.7173V177.493H105.479V180.914Z" fill="#8A62FC"/>
</g>
<defs>
<clipPath id="clip0_520_190">
<rect width="355" height="355" fill="white"/>
</clipPath>
</defs>
</svg>
