<svg width="355" height="355" viewBox="0 0 355 355" fill="none" xmlns="http://www.w3.org/2000/svg">
<path d="M177.362 262.345C157.978 262.344 139.307 255.038 125.069 241.884C110.832 228.73 102.074 210.694 100.541 191.371C99.0077 172.048 104.813 152.857 116.798 137.623C128.784 122.388 146.07 112.23 165.211 109.172C184.352 106.115 203.942 110.382 220.078 121.124C236.213 131.866 247.707 148.294 252.271 167.133C256.834 185.972 254.131 205.839 244.7 222.773C235.269 239.708 219.803 252.467 201.384 258.508C193.63 261.048 185.522 262.343 177.362 262.345V262.345ZM177.362 111.622C162.805 111.622 148.574 115.939 136.47 124.027C124.366 132.114 114.932 143.609 109.362 157.059C103.791 170.508 102.333 185.307 105.173 199.585C108.013 213.862 115.023 226.977 125.317 237.271C135.61 247.564 148.725 254.575 163.003 257.415C177.281 260.255 192.08 258.797 205.529 253.226C218.978 247.655 230.474 238.221 238.561 226.117C246.649 214.013 250.966 199.783 250.966 185.225C250.957 165.703 243.201 146.981 229.401 133.172C215.601 119.363 196.885 111.594 177.362 111.571V111.622ZM55.0732 118.773L51.9796 117.082C61.0927 100.423 73.4177 85.7344 88.2419 73.8669C103.066 61.9994 120.096 53.1879 138.346 47.9419L139.31 51.3229C121.506 56.4366 104.894 65.0312 90.4343 76.6091C75.975 88.187 63.956 102.518 55.0732 118.773V118.773ZM278.317 282.124L275.765 279.672C294.722 259.906 307.298 234.897 311.859 207.892C316.42 180.887 312.755 153.135 301.342 128.24L304.503 126.786C316.222 152.323 319.989 180.794 315.313 208.5C310.637 236.206 297.735 261.864 278.284 282.14L278.317 282.124ZM177.362 313.262C150.679 313.263 124.663 304.93 102.945 289.428C81.2272 273.926 64.8928 252.029 56.2227 226.794L59.6037 225.662C69.1191 253.3 88.0461 276.716 113.076 291.814C138.106 306.912 167.646 312.733 196.532 308.258L197.073 311.741C190.552 312.757 183.962 313.266 177.362 313.262V313.262ZM78.7906 153.698L75.4096 152.616C75.9675 150.926 76.5422 149.235 77.1001 147.545C82.1627 134.113 89.8728 121.835 99.7726 111.44C109.672 101.045 121.56 92.7459 134.73 87.0346C147.899 81.3234 162.082 78.3168 176.436 78.1933C190.79 78.0698 205.023 80.8319 218.289 86.3157L216.936 89.5783C204.401 84.3882 190.963 81.7282 177.396 81.7514C156.351 81.82 135.822 88.2718 118.521 100.254C101.22 112.237 87.9622 129.186 80.498 148.863C79.8894 150.452 79.3315 152.041 78.7906 153.698ZM275.765 227.42L272.519 226.034C282.078 203.722 283.496 178.762 276.526 155.511C269.555 132.261 254.639 112.198 234.382 98.8252L236.326 95.8838C257.264 109.719 272.681 130.464 279.888 154.503C287.096 178.541 285.636 204.347 275.765 227.42V227.42ZM199.169 257.223L194.267 235.399L182.687 230.801L188.874 212.645L202.229 204.311L211.713 216.28H227.891L244.17 218.866L243.612 222.348L227.468 219.762H210.005L201.384 208.977L191.782 214.978L187.082 228.755L197.225 232.812L202.533 256.479L199.169 257.223ZM140.003 224.833L123.182 219.458L120.562 210.549L112.245 221.723L109.422 219.593L121.965 202.688L126.039 216.584L137.687 220.32L141.659 207.743L154.896 204.734L163.94 208.317L175.114 185.733L164.971 178.734L162.503 170.603L156.248 164.94L143.789 171.837L136.571 163.74L132.176 153.495L104.57 171.11L102.677 168.135L133.765 148.255L139.479 161.779L144.482 167.357L156.688 160.595L165.512 168.591L167.98 176.57L179.627 184.6L165.664 212.831L154.608 208.453L144.466 210.769L140.003 224.833ZM233.976 196.619V186.29L220.283 178.937L217.951 171.719H200.927L190.785 158.06L186.761 142.845H213.64L227.789 129.119L230.257 131.654L215.043 146.378H191.376L194.064 156.521L202.719 168.202H220.52L223.208 176.52L237.509 184.194V192.647L252.538 190.956L252.927 194.472L233.976 196.619ZM226.741 104.049C224.401 104.049 222.113 103.355 220.167 102.055C218.221 100.754 216.704 98.9062 215.808 96.7439C214.913 94.5816 214.678 92.2024 215.135 89.9069C215.592 87.6115 216.719 85.503 218.374 83.848C220.029 82.1931 222.137 81.0661 224.432 80.6095C226.728 80.1529 229.107 80.3873 231.269 81.2829C233.432 82.1785 235.28 83.6952 236.58 85.6412C237.88 87.5872 238.574 89.8751 238.574 92.2155C238.574 95.3539 237.328 98.3637 235.108 100.583C232.889 102.802 229.879 104.049 226.741 104.049V104.049ZM226.741 83.949C225.098 83.9457 223.491 84.4301 222.123 85.3408C220.756 86.2516 219.689 87.5477 219.059 89.0651C218.429 90.5825 218.263 92.2528 218.583 93.8644C218.902 95.4761 219.693 96.9566 220.855 98.1184C222.017 99.2803 223.497 100.071 225.109 100.391C226.721 100.711 228.391 100.545 229.908 99.9145C231.426 99.2841 232.722 98.2177 233.633 96.8501C234.543 95.4825 235.028 93.8755 235.024 92.2324C235.02 90.0369 234.146 87.9326 232.593 86.3801C231.041 84.8277 228.937 83.9535 226.741 83.949ZM269.645 247.503C267.305 247.503 265.017 246.809 263.071 245.508C261.125 244.208 259.608 242.36 258.713 240.198C257.817 238.035 257.583 235.656 258.039 233.361C258.496 231.065 259.623 228.957 261.278 227.302C262.933 225.647 265.041 224.52 267.337 224.063C269.632 223.607 272.011 223.841 274.174 224.737C276.336 225.632 278.184 227.149 279.484 229.095C280.785 231.041 281.479 233.329 281.479 235.669C281.479 237.23 281.17 238.776 280.57 240.217C279.97 241.659 279.091 242.967 277.983 244.067C276.875 245.167 275.561 246.037 274.115 246.626C272.67 247.216 271.122 247.514 269.561 247.503H269.645ZM269.645 227.403C268.002 227.399 266.395 227.884 265.028 228.795C263.66 229.705 262.594 231.002 261.963 232.519C261.333 234.036 261.167 235.707 261.487 237.318C261.807 238.93 262.597 240.41 263.759 241.572C264.921 242.734 266.402 243.525 268.013 243.845C269.625 244.164 271.295 243.999 272.813 243.368C274.33 242.738 275.626 241.671 276.537 240.304C277.448 238.936 277.932 237.329 277.929 235.686C277.926 234.592 277.708 233.509 277.286 232.499C276.863 231.49 276.245 230.574 275.468 229.804C274.69 229.034 273.768 228.426 272.754 228.014C271.74 227.601 270.655 227.394 269.561 227.403H269.645ZM269.645 299.4C267.305 299.4 265.017 298.706 263.071 297.406C261.125 296.106 259.608 294.258 258.713 292.095C257.817 289.933 257.583 287.554 258.039 285.258C258.496 282.963 259.623 280.854 261.278 279.199C262.933 277.545 265.041 276.418 267.337 275.961C269.632 275.504 272.011 275.739 274.174 276.634C276.336 277.53 278.184 279.047 279.484 280.993C280.785 282.939 281.479 285.226 281.479 287.567C281.479 289.128 281.17 290.674 280.57 292.115C279.97 293.556 279.091 294.864 277.983 295.964C276.875 297.064 275.561 297.934 274.115 298.524C272.67 299.114 271.122 299.411 269.561 299.4H269.645ZM269.645 279.3C268.007 279.3 266.406 279.786 265.043 280.696C263.681 281.607 262.619 282.9 261.993 284.414C261.366 285.927 261.202 287.593 261.521 289.2C261.841 290.807 262.63 292.283 263.788 293.441C264.947 294.599 266.423 295.388 268.029 295.708C269.636 296.028 271.302 295.864 272.815 295.237C274.329 294.61 275.622 293.548 276.533 292.186C277.443 290.824 277.929 289.222 277.929 287.584C277.929 286.489 277.712 285.405 277.29 284.394C276.869 283.384 276.251 282.467 275.473 281.696C274.695 280.926 273.771 280.318 272.757 279.907C271.742 279.495 270.656 279.289 269.561 279.3H269.645ZM298.654 130.268C296.313 130.268 294.026 129.574 292.08 128.274C290.134 126.974 288.617 125.125 287.721 122.963C286.826 120.801 286.591 118.422 287.048 116.126C287.505 113.831 288.632 111.722 290.286 110.067C291.941 108.412 294.05 107.285 296.345 106.829C298.641 106.372 301.02 106.607 303.182 107.502C305.345 108.398 307.193 109.915 308.493 111.861C309.793 113.806 310.487 116.094 310.487 118.435C310.487 119.996 310.178 121.542 309.578 122.983C308.978 124.424 308.099 125.732 306.991 126.832C305.884 127.932 304.569 128.802 303.124 129.392C301.678 129.981 300.13 130.279 298.569 130.268H298.654ZM298.654 110.168C297.016 110.168 295.414 110.654 294.052 111.564C292.69 112.475 291.628 113.768 291.001 115.282C290.374 116.795 290.21 118.461 290.53 120.068C290.849 121.674 291.638 123.15 292.797 124.309C293.955 125.467 295.431 126.256 297.038 126.576C298.645 126.895 300.31 126.731 301.824 126.104C303.337 125.478 304.631 124.416 305.541 123.054C306.451 121.691 306.937 120.09 306.937 118.452C306.935 117.357 306.716 116.274 306.294 115.265C305.872 114.255 305.254 113.339 304.476 112.569C303.699 111.8 302.776 111.191 301.763 110.779C300.749 110.367 299.664 110.159 298.569 110.168H298.654ZM149.216 59.1667C146.875 59.1667 144.588 58.4727 142.642 57.1724C140.696 55.8721 139.179 54.024 138.283 51.8618C137.388 49.6995 137.153 47.3202 137.61 45.0248C138.066 42.7293 139.193 40.6208 140.848 38.9659C142.503 37.311 144.612 36.184 146.907 35.7274C149.203 35.2708 151.582 35.5051 153.744 36.4008C155.906 37.2964 157.755 38.8131 159.055 40.7591C160.355 42.7051 161.049 44.9929 161.049 47.3333C161.049 50.4717 159.802 53.4816 157.583 55.7008C155.364 57.9199 152.354 59.1667 149.216 59.1667ZM149.216 39.0669C147.574 39.0535 145.965 39.5283 144.594 40.4311C143.222 41.3338 142.15 42.6238 141.513 44.1371C140.877 45.6505 140.704 47.3189 141.017 48.9306C141.33 50.5423 142.116 52.0246 143.273 53.1891C144.43 54.3537 145.908 55.148 147.518 55.4712C149.127 55.7944 150.797 55.632 152.314 55.0045C153.831 54.377 155.128 53.3127 156.039 51.9469C156.95 50.581 157.435 48.9752 157.432 47.3333C157.432 45.1465 156.569 43.0481 155.03 41.4939C153.492 39.9397 151.402 39.0554 149.216 39.0331V39.0669ZM49.2411 138.484C46.9006 138.484 44.6128 137.79 42.6668 136.49C40.7208 135.189 39.2041 133.341 38.3085 131.179C37.4128 129.017 37.1785 126.637 37.6351 124.342C38.0917 122.046 39.2187 119.938 40.8736 118.283C42.5285 116.628 44.637 115.501 46.9325 115.045C49.2279 114.588 51.6072 114.822 53.7695 115.718C55.9317 116.614 57.7798 118.13 59.0801 120.076C60.3804 122.022 61.0744 124.31 61.0744 126.65C61.0744 129.789 59.8277 132.799 57.6085 135.018C55.3893 137.237 52.3794 138.484 49.2411 138.484V138.484ZM49.2411 118.333C47.6028 118.333 46.0013 118.819 44.6391 119.729C43.2769 120.64 42.2152 121.933 41.5883 123.447C40.9613 124.96 40.7973 126.626 41.1169 128.233C41.4365 129.839 42.2254 131.315 43.3839 132.474C44.5423 133.632 46.0182 134.421 47.6251 134.741C49.2319 135.06 50.8974 134.896 52.4109 134.269C53.9245 133.643 55.2182 132.581 56.1284 131.219C57.0386 129.856 57.5244 128.255 57.5244 126.617C57.5199 124.421 56.6458 122.317 55.0933 120.764C53.5409 119.212 51.4366 118.338 49.2411 118.333V118.333ZM206.574 319.5C204.233 319.5 201.945 318.806 199.999 317.506C198.053 316.205 196.537 314.357 195.641 312.195C194.745 310.033 194.511 307.654 194.968 305.358C195.424 303.063 196.551 300.954 198.206 299.299C199.861 297.644 201.97 296.517 204.265 296.061C206.561 295.604 208.94 295.838 211.102 296.734C213.264 297.63 215.112 299.146 216.413 301.092C217.713 303.038 218.407 305.326 218.407 307.667C218.407 309.222 218.1 310.762 217.505 312.199C216.909 313.636 216.036 314.941 214.935 316.04C213.834 317.139 212.528 318.01 211.09 318.604C209.653 319.198 208.112 319.502 206.557 319.5H206.574ZM206.574 299.4C204.937 299.41 203.34 299.905 201.984 300.822C200.628 301.739 199.574 303.037 198.956 304.553C198.337 306.068 198.181 307.733 198.508 309.337C198.834 310.941 199.629 312.412 200.791 313.564C201.953 314.717 203.431 315.5 205.037 315.813C206.644 316.127 208.307 315.958 209.818 315.327C211.328 314.696 212.617 313.631 213.523 312.268C214.429 310.905 214.911 309.303 214.908 307.667C214.903 306.575 214.684 305.495 214.261 304.489C213.839 303.482 213.222 302.569 212.447 301.801C211.671 301.034 210.752 300.426 209.741 300.014C208.73 299.602 207.648 299.394 206.557 299.4H206.574ZM54.7689 228.502C52.4285 228.502 50.1406 227.808 48.1947 226.507C46.2487 225.207 44.732 223.359 43.8363 221.197C42.9407 219.034 42.7064 216.655 43.163 214.36C43.6195 212.064 44.7466 209.956 46.4015 208.301C48.0564 206.646 50.1649 205.519 52.4603 205.062C54.7558 204.606 57.1351 204.84 59.2973 205.736C61.4596 206.631 63.3077 208.148 64.608 210.094C65.9082 212.04 66.6022 214.328 66.6022 216.668C66.6022 218.222 66.2962 219.761 65.7015 221.197C65.1068 222.632 64.2352 223.937 63.1363 225.036C62.0375 226.135 60.733 227.006 59.2973 227.601C57.8616 228.196 56.3229 228.502 54.7689 228.502V228.502ZM54.7689 208.385C53.1273 208.385 51.5225 208.872 50.1575 209.784C48.7926 210.696 47.7287 211.992 47.1005 213.509C46.4723 215.026 46.3079 216.694 46.6282 218.305C46.9484 219.915 47.7389 221.394 48.8998 222.554C50.0606 223.715 51.5395 224.506 53.1496 224.826C54.7597 225.146 56.4286 224.982 57.9453 224.354C59.4619 223.725 60.7583 222.662 61.6703 221.297C62.5823 219.932 63.0691 218.327 63.0691 216.685C63.0691 214.484 62.1947 212.373 60.6381 210.816C59.0815 209.259 56.9703 208.385 54.7689 208.385ZM74.8856 174.761C72.5452 174.761 70.2573 174.067 68.3113 172.767C66.3653 171.467 64.8486 169.619 63.953 167.457C63.0574 165.294 62.823 162.915 63.2796 160.62C63.7362 158.324 64.8632 156.216 66.5181 154.561C68.1731 152.906 70.2816 151.779 72.577 151.322C74.8724 150.866 77.2517 151.1 79.414 151.996C81.5763 152.891 83.4244 154.408 84.7246 156.354C86.0249 158.3 86.7189 160.588 86.7189 162.928C86.7189 166.066 85.4722 169.076 83.253 171.296C81.0338 173.515 78.024 174.761 74.8856 174.761V174.761ZM74.8856 154.662C73.2425 154.658 71.6354 155.143 70.2679 156.053C68.9003 156.964 67.8338 158.26 67.2035 159.778C66.5732 161.295 66.4074 162.965 66.7271 164.577C67.0468 166.189 67.8377 167.669 68.9995 168.831C70.1614 169.993 71.6419 170.784 73.2535 171.103C74.8652 171.423 76.5355 171.257 78.0529 170.627C79.5702 169.997 80.8664 168.93 81.7771 167.563C82.6879 166.195 83.1723 164.588 83.1689 162.945C83.1644 160.749 82.2903 158.645 80.7378 157.093C79.1854 155.54 77.0811 154.666 74.8856 154.662Z" fill="#8A62FC"/>
</svg>
